  0
SECTION
  2
HEADER
  9
$ACADVER
  1
AC1021
  9
$ACADMAINTVER
 70
    25
  9
$DWGCODEPAGE
  3
ANSI_1252
  9
$INSBASE
 10
0.0
 20
0.0
 30
0.0
  9
$EXTMIN
 10
-11.97591338582677
 20
4.829244094488189
 30
0.0
  9
$EXTMAX
 10
11.38785433070866
 20
8.933452755905511
 30
0.0
  9
$LIMMIN
 10
0.0
 20
0.0
  9
$LIMMAX
 10
12.0
 20
9.0
  9
$ORTHOMODE
 70
     0
  9
$REGENMODE
 70
     1
  9
$FILLMODE
 70
     1
  9
$QTEXTMODE
 70
     0
  9
$MIRRTEXT
 70
     1
  9
$LTSCALE
 40
1.0
  9
$ATTMODE
 70
     1
  9
$TEXTSIZE
 40
0.2
  9
$TRACEWID
 40
0.05
  9
$TEXTSTYLE
  7
Standard
  9
$CLAYER
  8
0
  9
$CELTYPE
  6
ByLayer
  9
$CECOLOR
 62
   256
  9
$CELTSCALE
 40
1.0
  9
$DISPSILH
 70
     0
  9
$DIMSCALE
 40
1.0
  9
$DIMASZ
 40
0.18
  9
$DIMEXO
 40
0.0625
  9
$DIMDLI
 40
0.38
  9
$DIMRND
 40
0.0
  9
$DIMDLE
 40
0.0
  9
$DIMEXE
 40
0.18
  9
$DIMTP
 40
0.0
  9
$DIMTM
 40
0.0
  9
$DIMTXT
 40
0.18
  9
$DIMCEN
 40
0.09
  9
$DIMTSZ
 40
0.0
  9
$DIMTOL
 70
     0
  9
$DIMLIM
 70
     0
  9
$DIMTIH
 70
     1
  9
$DIMTOH
 70
     1
  9
$DIMSE1
 70
     0
  9
$DIMSE2
 70
     0
  9
$DIMTAD
 70
     0
  9
$DIMZIN
 70
     0
  9
$DIMBLK
  1

  9
$DIMASO
 70
     1
  9
$DIMSHO
 70
     1
  9
$DIMPOST
  1

  9
$DIMAPOST
  1

  9
$DIMALT
 70
     0
  9
$DIMALTD
 70
     2
  9
$DIMALTF
 40
25.4
  9
$DIMLFAC
 40
1.0
  9
$DIMTOFL
 70
     0
  9
$DIMTVP
 40
0.0
  9
$DIMTIX
 70
     0
  9
$DIMSOXD
 70
     0
  9
$DIMSAH
 70
     0
  9
$DIMBLK1
  1

  9
$DIMBLK2
  1

  9
$DIMSTYLE
  2
Standard
  9
$DIMCLRD
 70
     0
  9
$DIMCLRE
 70
     0
  9
$DIMCLRT
 70
     0
  9
$DIMTFAC
 40
1.0
  9
$DIMGAP
 40
0.09
  9
$DIMJUST
 70
     0
  9
$DIMSD1
 70
     0
  9
$DIMSD2
 70
     0
  9
$DIMTOLJ
 70
     1
  9
$DIMTZIN
 70
     0
  9
$DIMALTZ
 70
     0
  9
$DIMALTTZ
 70
     0
  9
$DIMUPT
 70
     0
  9
$DIMDEC
 70
     4
  9
$DIMTDEC
 70
     4
  9
$DIMALTU
 70
     2
  9
$DIMALTTD
 70
     2
  9
$DIMTXSTY
  7
Standard
  9
$DIMAUNIT
 70
     0
  9
$DIMADEC
 70
     0
  9
$DIMALTRND
 40
0.0
  9
$DIMAZIN
 70
     0
  9
$DIMDSEP
 70
    46
  9
$DIMATFIT
 70
     3
  9
$DIMFRAC
 70
     0
  9
$DIMLDRBLK
  1

  9
$DIMLUNIT
 70
     2
  9
$DIMLWD
 70
    -2
  9
$DIMLWE
 70
    -2
  9
$DIMTMOVE
 70
     0
  9
$DIMFXL
 40
1.0
  9
$DIMFXLON
 70
     0
  9
$DIMJOGANG
 40
0.7853981633974483
  9
$DIMTFILL
 70
     0
  9
$DIMTFILLCLR
 70
     0
  9
$DIMARCSYM
 70
     0
  9
$DIMLTYPE
  6

  9
$DIMLTEX1
  6

  9
$DIMLTEX2
  6

  9
$LUNITS
 70
     2
  9
$LUPREC
 70
     4
  9
$SKETCHINC
 40
0.1
  9
$FILLETRAD
 40
0.5
  9
$AUNITS
 70
     0
  9
$AUPREC
 70
     0
  9
$MENU
  1
.
  9
$ELEVATION
 40
0.0
  9
$PELEVATION
 40
0.0
  9
$THICKNESS
 40
0.0
  9
$LIMCHECK
 70
     0
  9
$CHAMFERA
 40
0.5
  9
$CHAMFERB
 40
0.5
  9
$CHAMFERC
 40
1.0
  9
$CHAMFERD
 40
0.0
  9
$SKPOLY
 70
     0
  9
$TDCREATE
 40
2456615.532136945
  9
$TDUCREATE
 40
2456615.865470278
  9
$TDUPDATE
 40
2456615.532136956
  9
$TDUUPDATE
 40
2456615.865470289
  9
$TDINDWG
 40
0.0000000116
  9
$TDUSRTIMER
 40
0.0000000116
  9
$USRTIMER
 70
     1
  9
$ANGBASE
 50
0.0
  9
$ANGDIR
 70
     0
  9
$PDMODE
 70
     0
  9
$PDSIZE
 40
0.0
  9
$PLINEWID
 40
0.0
  9
$SPLFRAME
 70
     0
  9
$SPLINETYPE
 70
     6
  9
$SPLINESEGS
 70
     8
  9
$HANDSEED
  5
142
  9
$SURFTAB1
 70
     6
  9
$SURFTAB2
 70
     6
  9
$SURFTYPE
 70
     6
  9
$SURFU
 70
     6
  9
$SURFV
 70
     6
  9
$UCSBASE
  2

  9
$UCSNAME
  2

  9
$UCSORG
 10
0.0
 20
0.0
 30
0.0
  9
$UCSXDIR
 10
1.0
 20
0.0
 30
0.0
  9
$UCSYDIR
 10
0.0
 20
1.0
 30
0.0
  9
$UCSORTHOREF
  2

  9
$UCSORTHOVIEW
 70
     0
  9
$UCSORGTOP
 10
0.0
 20
0.0
 30
0.0
  9
$UCSORGBOTTOM
 10
0.0
 20
0.0
 30
0.0
  9
$UCSORGLEFT
 10
0.0
 20
0.0
 30
0.0
  9
$UCSORGRIGHT
 10
0.0
 20
0.0
 30
0.0
  9
$UCSORGFRONT
 10
0.0
 20
0.0
 30
0.0
  9
$UCSORGBACK
 10
0.0
 20
0.0
 30
0.0
  9
$PUCSBASE
  2

  9
$PUCSNAME
  2

  9
$PUCSORG
 10
0.0
 20
0.0
 30
0.0
  9
$PUCSXDIR
 10
1.0
 20
0.0
 30
0.0
  9
$PUCSYDIR
 10
0.0
 20
1.0
 30
0.0
  9
$PUCSORTHOREF
  2

  9
$PUCSORTHOVIEW
 70
     0
  9
$PUCSORGTOP
 10
0.0
 20
0.0
 30
0.0
  9
$PUCSORGBOTTOM
 10
0.0
 20
0.0
 30
0.0
  9
$PUCSORGLEFT
 10
0.0
 20
0.0
 30
0.0
  9
$PUCSORGRIGHT
 10
0.0
 20
0.0
 30
0.0
  9
$PUCSORGFRONT
 10
0.0
 20
0.0
 30
0.0
  9
$PUCSORGBACK
 10
0.0
 20
0.0
 30
0.0
  9
$USERI1
 70
     0
  9
$USERI2
 70
     0
  9
$USERI3
 70
     0
  9
$USERI4
 70
     0
  9
$USERI5
 70
     0
  9
$USERR1
 40
0.0
  9
$USERR2
 40
0.0
  9
$USERR3
 40
0.0
  9
$USERR4
 40
0.0
  9
$USERR5
 40
0.0
  9
$WORLDVIEW
 70
     1
  9
$SHADEDGE
 70
     3
  9
$SHADEDIF
 70
    70
  9
$TILEMODE
 70
     1
  9
$MAXACTVP
 70
    64
  9
$PINSBASE
 10
0.0
 20
0.0
 30
0.0
  9
$PLIMCHECK
 70
     0
  9
$PEXTMIN
 10
1.000000000000000E+20
 20
1.000000000000000E+20
 30
1.000000000000000E+20
  9
$PEXTMAX
 10
-1.000000000000000E+20
 20
-1.000000000000000E+20
 30
-1.000000000000000E+20
  9
$PLIMMIN
 10
0.0
 20
0.0
  9
$PLIMMAX
 10
12.0
 20
9.0
  9
$UNITMODE
 70
     0
  9
$VISRETAIN
 70
     1
  9
$PLINEGEN
 70
     0
  9
$PSLTSCALE
 70
     1
  9
$TREEDEPTH
 70
  3020
  9
$CMLSTYLE
  2
Standard
  9
$CMLJUST
 70
     0
  9
$CMLSCALE
 40
1.0
  9
$PROXYGRAPHICS
 70
     1
  9
$MEASUREMENT
 70
     0
  9
$CELWEIGHT
370
    -1
  9
$ENDCAPS
280
     0
  9
$JOINSTYLE
280
     0
  9
$LWDISPLAY
290
     0
  9
$INSUNITS
 70
     1
  9
$HYPERLINKBASE
  1

  9
$STYLESHEET
  1

  9
$XEDIT
290
     1
  9
$CEPSNTYPE
380
     0
  9
$PSTYLEMODE
290
     1
  9
$FINGERPRINTGUID
  2
{D11C80B1-B49F-4EEB-ADB1-5AA6D674FD7A}
  9
$VERSIONGUID
  2
{FAEB1C32-E019-11D5-929B-00C0DF256EC4}
  9
$EXTNAMES
290
     1
  9
$PSVPSCALE
 40
0.0
  9
$OLESTARTUP
290
     0
  9
$SORTENTS
280
   127
  9
$INDEXCTL
280
     0
  9
$HIDETEXT
280
     1
  9
$XCLIPFRAME
290
     0
  9
$HALOGAP
280
     0
  9
$OBSCOLOR
 70
   257
  9
$OBSLTYPE
280
     0
  9
$INTERSECTIONDISPLAY
280
     0
  9
$INTERSECTIONCOLOR
 70
   257
  9
$DIMASSOC
280
     2
  9
$PROJECTNAME
  1

  9
$CAMERADISPLAY
290
     0
  9
$LENSLENGTH
 40
50.0
  9
$CAMERAHEIGHT
 40
0.0
  9
$STEPSPERSEC
 40
2.0
  9
$STEPSIZE
 40
6.0
  9
$3DDWFPREC
 40
2.0
  9
$PSOLWIDTH
 40
0.25
  9
$PSOLHEIGHT
 40
4.0
  9
$LOFTANG1
 40
1.570796326794897
  9
$LOFTANG2
 40
1.570796326794897
  9
$LOFTMAG1
 40
0.0
  9
$LOFTMAG2
 40
0.0
  9
$LOFTPARAM
 70
     7
  9
$LOFTNORMALS
280
     1
  9
$LATITUDE
 40
37.795
  9
$LONGITUDE
 40
-122.394
  9
$NORTHDIRECTION
 40
0.0
  9
$TIMEZONE
 70
 -8000
  9
$LIGHTGLYPHDISPLAY
280
     1
  9
$TILEMODELIGHTSYNCH
280
     1
  9
$SOLIDHIST
280
     1
  9
$SHOWHIST
280
     1
  9
$DWFFRAME
280
     2
  9
$DGNFRAME
280
     2
  9
$REALWORLDSCALE
290
     1
  9
$INTERFERECOLOR
 62
   256
  9
$CSHADOW
280
     0
  9
$SHADOWPLANELOCATION
 40
0.0
  0
ENDSEC
  0
SECTION
  2
CLASSES
  0
CLASS
  1
ACDBDICTIONARYWDFLT
  2
AcDbDictionaryWithDefault
  3
ObjectDBX Classes
 90
        0
 91
        4
280
     0
281
     0
  0
CLASS
  1
VISUALSTYLE
  2
AcDbVisualStyle
  3
ObjectDBX Classes
 90
     4095
 91
        4
280
     0
281
     0
  0
CLASS
  1
MATERIAL
  2
AcDbMaterial
  3
ObjectDBX Classes
 90
     1153
 91
        4
280
     0
281
     0
  0
CLASS
  1
SCALE
  2
AcDbScale
  3
ObjectDBX Classes
 90
     1153
 91
        4
280
     0
281
     0
  0
CLASS
  1
IMAGEDEF
  2
AcDbRasterImageDef
  3
ISM
 90
        0
 91
        4
280
     0
281
     0
  0
CLASS
  1
IMAGE
  2
AcDbRasterImage
  3
ISM
 90
      127
 91
        5
280
     0
281
     1
  0
CLASS
  1
IMAGEDEF_REACTOR
  2
AcDbRasterImageDefReactor
  3
ISM
 90
        1
 91
        4
280
     0
281
     0
  0
CLASS
  1
DICTIONARYVAR
  2
AcDbDictionaryVar
  3
ObjectDBX Classes
 90
        0
 91
        4
280
     0
281
     0
  0
ENDSEC
  0
SECTION
  2
TABLES
  0
TABLE
  2
VPORT
  5
8
330
0
100
AcDbSymbolTable
 70
     1
  0
VPORT
  5
29
330
8
100
AcDbSymbolTableRecord
100
AcDbViewportTableRecord
  2
*Active
 70
     0
 10
0.0
 20
0.0
 11
1.0
 21
1.0
 12
10.42990654205607
 22
4.5
 13
0.0
 23
0.0
 14
0.5
 24
0.5
 15
0.5
 25
0.5
 16
0.0
 26
0.0
 36
1.0
 17
0.0
 27
0.0
 37
0.0
 40
9.0
 41
1.972972972850329
 42
50.0
 43
0.0
 44
0.0
 50
0.0
 51
0.0
 71
     0
 72
   100
 73
     1
 74
     3
 75
     0
 76
     0
 77
     0
 78
     0
281
     0
 65
     1
110
0.0
120
0.0
130
0.0
111
1.0
121
0.0
131
0.0
112
0.0
122
1.0
132
0.0
 79
     0
146
0.0
 60
     3
 61
     5
292
     1
282
     1
141
0.0
142
0.0
 63
   250
  0
ENDTAB
  0
TABLE
  2
LTYPE
  5
5
330
0
100
AcDbSymbolTable
 70
     1
  0
LTYPE
  5
14
330
5
100
AcDbSymbolTableRecord
100
AcDbLinetypeTableRecord
  2
ByBlock
 70
     0
  3

 72
    65
 73
     0
 40
0.0
  0
LTYPE
  5
15
330
5
100
AcDbSymbolTableRecord
100
AcDbLinetypeTableRecord
  2
ByLayer
 70
     0
  3

 72
    65
 73
     0
 40
0.0
  0
LTYPE
  5
16
330
5
100
AcDbSymbolTableRecord
100
AcDbLinetypeTableRecord
  2
Continuous
 70
     0
  3
Solid line
 72
    65
 73
     0
 40
0.0
  0
ENDTAB
  0
TABLE
  2
LAYER
  5
2
330
0
100
AcDbSymbolTable
 70
     2
  0
LAYER
  5
10
330
2
100
AcDbSymbolTableRecord
100
AcDbLayerTableRecord
  2
0
 70
     0
 62
     7
  6
Continuous
370
    -3
390
F
347
3E
  0
LAYER
  5
40
330
2
100
AcDbSymbolTableRecord
100
AcDbLayerTableRecord
  2
Layer 1
 70
     0
 62
     7
  6
Continuous
370
    -3
390
F
347
3E
  0
ENDTAB
  0
TABLE
  2
STYLE
  5
3
330
0
100
AcDbSymbolTable
 70
    40
  0
STYLE
  5
11
330
3
100
AcDbSymbolTableRecord
100
AcDbTextStyleTableRecord
  2
Standard
 70
     0
 40
0.0
 41
1.0
 50
0.0
 71
     0
 42
0.2
  3
txt
  4

  0
STYLE
  5
96
330
3
100
AcDbSymbolTableRecord
100
AcDbTextStyleTableRecord
  2
0
 70
     0
 40
1.0
 41
1.0
 50
0.0
 71
     0
 42
1.0
  3
Arial
  4

1001
ACAD
1000
Arial
1071
       34
  0
STYLE
  5
BA
330
3
100
AcDbSymbolTableRecord
100
AcDbTextStyleTableRecord
  2
1
 70
     0
 40
1.0
 41
1.0
 50
0.0
 71
     0
 42
1.0
  3
Arial
  4

1001
ACAD
1000
Arial
1071
       34
  0
STYLE
  5
BC
330
3
100
AcDbSymbolTableRecord
100
AcDbTextStyleTableRecord
  2
2
 70
     0
 40
1.0
 41
1.0
 50
0.0
 71
     0
 42
1.0
  3
Arial
  4

1001
ACAD
1000
Arial
1071
       34
  0
STYLE
  5
BE
330
3
100
AcDbSymbolTableRecord
100
AcDbTextStyleTableRecord
  2
3
 70
     0
 40
1.0
 41
1.0
 50
0.0
 71
     0
 42
1.0
  3
Arial
  4

1001
ACAD
1000
Arial
1071
       34
  0
STYLE
  5
C0
330
3
100
AcDbSymbolTableRecord
100
AcDbTextStyleTableRecord
  2
4
 70
     0
 40
1.0
 41
1.0
 50
0.0
 71
     0
 42
1.0
  3
Arial
  4

1001
ACAD
1000
Arial
1071
       34
  0
STYLE
  5
C2
330
3
100
AcDbSymbolTableRecord
100
AcDbTextStyleTableRecord
  2
5
 70
     0
 40
1.0
 41
1.0
 50
0.0
 71
     0
 42
1.0
  3
Arial
  4

1001
ACAD
1000
Arial
1071
       34
  0
STYLE
  5
C4
330
3
100
AcDbSymbolTableRecord
100
AcDbTextStyleTableRecord
  2
6
 70
     0
 40
1.0
 41
1.0
 50
0.0
 71
     0
 42
1.0
  3
Arial
  4

1001
ACAD
1000
Arial
1071
       34
  0
STYLE
  5
C6
330
3
100
AcDbSymbolTableRecord
100
AcDbTextStyleTableRecord
  2
7
 70
     0
 40
1.0
 41
1.0
 50
0.0
 71
     0
 42
1.0
  3
Arial
  4

1001
ACAD
1000
Arial
1071
       34
  0
STYLE
  5
C8
330
3
100
AcDbSymbolTableRecord
100
AcDbTextStyleTableRecord
  2
8
 70
     0
 40
1.0
 41
1.0
 50
0.0
 71
     0
 42
1.0
  3
Arial
  4

1001
ACAD
1000
Arial
1071
       34
  0
STYLE
  5
CA
330
3
100
AcDbSymbolTableRecord
100
AcDbTextStyleTableRecord
  2
9
 70
     0
 40
1.0
 41
1.0
 50
0.0
 71
     0
 42
1.0
  3
Arial
  4

1001
ACAD
1000
Arial
1071
       34
  0
STYLE
  5
CC
330
3
100
AcDbSymbolTableRecord
100
AcDbTextStyleTableRecord
  2
10
 70
     0
 40
1.0
 41
1.0
 50
0.0
 71
     0
 42
1.0
  3
Arial
  4

1001
ACAD
1000
Arial
1071
       34
  0
STYLE
  5
CE
330
3
100
AcDbSymbolTableRecord
100
AcDbTextStyleTableRecord
  2
11
 70
     0
 40
1.0
 41
1.0
 50
0.0
 71
     0
 42
1.0
  3
Arial
  4

1001
ACAD
1000
Arial
1071
       34
  0
STYLE
  5
D0
330
3
100
AcDbSymbolTableRecord
100
AcDbTextStyleTableRecord
  2
12
 70
     0
 40
1.0
 41
1.0
 50
0.0
 71
     0
 42
1.0
  3
Arial
  4

1001
ACAD
1000
Arial
1071
       34
  0
STYLE
  5
D2
330
3
100
AcDbSymbolTableRecord
100
AcDbTextStyleTableRecord
  2
13
 70
     0
 40
1.0
 41
1.0
 50
0.0
 71
     0
 42
1.0
  3
Arial
  4

1001
ACAD
1000
Arial
1071
       34
  0
STYLE
  5
D4
330
3
100
AcDbSymbolTableRecord
100
AcDbTextStyleTableRecord
  2
14
 70
     0
 40
1.0
 41
1.0
 50
0.0
 71
     0
 42
1.0
  3
Arial
  4

1001
ACAD
1000
Arial
1071
       34
  0
STYLE
  5
D6
330
3
100
AcDbSymbolTableRecord
100
AcDbTextStyleTableRecord
  2
15
 70
     0
 40
1.0
 41
1.0
 50
0.0
 71
     0
 42
1.0
  3
Arial
  4

1001
ACAD
1000
Arial
1071
       34
  0
STYLE
  5
D8
330
3
100
AcDbSymbolTableRecord
100
AcDbTextStyleTableRecord
  2
16
 70
     0
 40
1.0
 41
1.0
 50
0.0
 71
     0
 42
1.0
  3
Arial
  4

1001
ACAD
1000
Arial
1071
       34
  0
STYLE
  5
DA
330
3
100
AcDbSymbolTableRecord
100
AcDbTextStyleTableRecord
  2
17
 70
     0
 40
1.0
 41
1.0
 50
0.0
 71
     0
 42
1.0
  3
Arial
  4

1001
ACAD
1000
Arial
1071
       34
  0
STYLE
  5
DC
330
3
100
AcDbSymbolTableRecord
100
AcDbTextStyleTableRecord
  2
18
 70
     0
 40
1.0
 41
1.0
 50
0.0
 71
     0
 42
1.0
  3
Arial
  4

1001
ACAD
1000
Arial
1071
       34
  0
STYLE
  5
DE
330
3
100
AcDbSymbolTableRecord
100
AcDbTextStyleTableRecord
  2
19
 70
     0
 40
1.0
 41
1.0
 50
0.0
 71
     0
 42
1.0
  3
Arial
  4

1001
ACAD
1000
Arial
1071
       34
  0
STYLE
  5
E0
330
3
100
AcDbSymbolTableRecord
100
AcDbTextStyleTableRecord
  2
20
 70
     0
 40
1.0
 41
1.0
 50
0.0
 71
     0
 42
1.0
  3
Arial
  4

1001
ACAD
1000
Arial
1071
       34
  0
STYLE
  5
E2
330
3
100
AcDbSymbolTableRecord
100
AcDbTextStyleTableRecord
  2
21
 70
     0
 40
1.0
 41
1.0
 50
0.0
 71
     0
 42
1.0
  3
Arial
  4

1001
ACAD
1000
Arial
1071
       34
  0
STYLE
  5
E4
330
3
100
AcDbSymbolTableRecord
100
AcDbTextStyleTableRecord
  2
22
 70
     0
 40
1.0
 41
1.0
 50
0.0
 71
     0
 42
1.0
  3
Arial
  4

1001
ACAD
1000
Arial
1071
       34
  0
STYLE
  5
E6
330
3
100
AcDbSymbolTableRecord
100
AcDbTextStyleTableRecord
  2
23
 70
     0
 40
1.0
 41
1.0
 50
0.0
 71
     0
 42
1.0
  3
Arial
  4

1001
ACAD
1000
Arial
1071
       34
  0
STYLE
  5
FB
330
3
100
AcDbSymbolTableRecord
100
AcDbTextStyleTableRecord
  2
24
 70
     0
 40
1.0
 41
1.0
 50
0.0
 71
     0
 42
1.0
  3
Arial
  4

1001
ACAD
1000
Arial
1071
       34
  0
STYLE
  5
FD
330
3
100
AcDbSymbolTableRecord
100
AcDbTextStyleTableRecord
  2
25
 70
     0
 40
1.0
 41
1.0
 50
0.0
 71
     0
 42
1.0
  3
Arial
  4

1001
ACAD
1000
Arial
1071
       34
  0
STYLE
  5
FF
330
3
100
AcDbSymbolTableRecord
100
AcDbTextStyleTableRecord
  2
26
 70
     0
 40
1.0
 41
1.0
 50
0.0
 71
     0
 42
1.0
  3
Arial
  4

1001
ACAD
1000
Arial
1071
       34
  0
STYLE
  5
101
330
3
100
AcDbSymbolTableRecord
100
AcDbTextStyleTableRecord
  2
27
 70
     0
 40
1.0
 41
1.0
 50
0.0
 71
     0
 42
1.0
  3
Arial
  4

1001
ACAD
1000
Arial
1071
       34
  0
STYLE
  5
103
330
3
100
AcDbSymbolTableRecord
100
AcDbTextStyleTableRecord
  2
28
 70
     0
 40
1.0
 41
1.0
 50
0.0
 71
     0
 42
1.0
  3
Arial
  4

1001
ACAD
1000
Arial
1071
       34
  0
STYLE
  5
105
330
3
100
AcDbSymbolTableRecord
100
AcDbTextStyleTableRecord
  2
29
 70
     0
 40
1.0
 41
1.0
 50
0.0
 71
     0
 42
1.0
  3
Arial
  4

1001
ACAD
1000
Arial
1071
       34
  0
STYLE
  5
107
330
3
100
AcDbSymbolTableRecord
100
AcDbTextStyleTableRecord
  2
30
 70
     0
 40
1.0
 41
1.0
 50
0.0
 71
     0
 42
1.0
  3
Arial
  4

1001
ACAD
1000
Arial
1071
       34
  0
STYLE
  5
109
330
3
100
AcDbSymbolTableRecord
100
AcDbTextStyleTableRecord
  2
31
 70
     0
 40
1.0
 41
1.0
 50
0.0
 71
     0
 42
1.0
  3
Arial
  4

1001
ACAD
1000
Arial
1071
       34
  0
STYLE
  5
10B
330
3
100
AcDbSymbolTableRecord
100
AcDbTextStyleTableRecord
  2
32
 70
     0
 40
1.0
 41
1.0
 50
0.0
 71
     0
 42
1.0
  3
Arial
  4

1001
ACAD
1000
Arial
1071
       34
  0
STYLE
  5
10D
330
3
100
AcDbSymbolTableRecord
100
AcDbTextStyleTableRecord
  2
33
 70
     0
 40
1.0
 41
1.0
 50
0.0
 71
     0
 42
1.0
  3
Arial
  4

1001
ACAD
1000
Arial
1071
       34
  0
STYLE
  5
10F
330
3
100
AcDbSymbolTableRecord
100
AcDbTextStyleTableRecord
  2
34
 70
     0
 40
1.0
 41
1.0
 50
0.0
 71
     0
 42
1.0
  3
Arial
  4

1001
ACAD
1000
Arial
1071
       34
  0
STYLE
  5
111
330
3
100
AcDbSymbolTableRecord
100
AcDbTextStyleTableRecord
  2
35
 70
     0
 40
1.0
 41
1.0
 50
0.0
 71
     0
 42
1.0
  3
Arial
  4

1001
ACAD
1000
Arial
1071
       34
  0
STYLE
  5
113
330
3
100
AcDbSymbolTableRecord
100
AcDbTextStyleTableRecord
  2
36
 70
     0
 40
1.0
 41
1.0
 50
0.0
 71
     0
 42
1.0
  3
Arial
  4

1001
ACAD
1000
Arial
1071
       34
  0
STYLE
  5
115
330
3
100
AcDbSymbolTableRecord
100
AcDbTextStyleTableRecord
  2
37
 70
     0
 40
1.0
 41
1.0
 50
0.0
 71
     0
 42
1.0
  3
Arial
  4

1001
ACAD
1000
Arial
1071
       34
  0
STYLE
  5
117
330
3
100
AcDbSymbolTableRecord
100
AcDbTextStyleTableRecord
  2
38
 70
     0
 40
1.0
 41
1.0
 50
0.0
 71
     0
 42
1.0
  3
Arial
  4

1001
ACAD
1000
Arial
1071
       34
  0
ENDTAB
  0
TABLE
  2
VIEW
  5
6
330
0
100
AcDbSymbolTable
 70
     0
  0
ENDTAB
  0
TABLE
  2
UCS
  5
7
330
0
100
AcDbSymbolTable
 70
     0
  0
ENDTAB
  0
TABLE
  2
APPID
  5
9
330
0
100
AcDbSymbolTable
 70
     2
  0
APPID
  5
12
330
9
100
AcDbSymbolTableRecord
100
AcDbRegAppTableRecord
  2
ACAD
 70
     0
  0
APPID
  5
3F
330
9
100
AcDbSymbolTableRecord
100
AcDbRegAppTableRecord
  2
ODA
 70
     0
  0
ENDTAB
  0
TABLE
  2
DIMSTYLE
  5
A
330
0
100
AcDbSymbolTable
 70
     1
100
AcDbDimStyleTable
  0
DIMSTYLE
105
27
330
A
100
AcDbSymbolTableRecord
100
AcDbDimStyleTableRecord
  2
Standard
 70
     0
340
11
  0
ENDTAB
  0
TABLE
  2
BLOCK_RECORD
  5
1
330
0
100
AcDbSymbolTable
 70
     1
  0
BLOCK_RECORD
  5
1F
330
1
100
AcDbSymbolTableRecord
100
AcDbBlockTableRecord
  2
*Model_Space
340
22
 70
     0
280
     1
281
     0
  0
BLOCK_RECORD
  5
1B
330
1
100
AcDbSymbolTableRecord
100
AcDbBlockTableRecord
  2
*Paper_Space
340
1E
 70
     0
280
     1
281
     0
  0
BLOCK_RECORD
  5
23
330
1
100
AcDbSymbolTableRecord
100
AcDbBlockTableRecord
  2
*Paper_Space0
340
26
 70
     0
280
     1
281
     0
  0
ENDTAB
  0
ENDSEC
  0
SECTION
  2
BLOCKS
  0
BLOCK
  5
20
330
1F
100
AcDbEntity
  8
0
100
AcDbBlockBegin
  2
*Model_Space
 70
     0
 10
0.0
 20
0.0
 30
0.0
  3
*Model_Space
  1

  0
ENDBLK
  5
21
330
1F
100
AcDbEntity
  8
0
100
AcDbBlockEnd
  0
BLOCK
  5
1C
330
1B
100
AcDbEntity
 67
     1
  8
0
100
AcDbBlockBegin
  2
*Paper_Space
 70
     0
 10
0.0
 20
0.0
 30
0.0
  3
*Paper_Space
  1

  0
ENDBLK
  5
1D
330
1B
100
AcDbEntity
 67
     1
  8
0
100
AcDbBlockEnd
  0
BLOCK
  5
24
330
23
100
AcDbEntity
  8
0
100
AcDbBlockBegin
  2
*Paper_Space0
 70
     0
 10
0.0
 20
0.0
 30
0.0
  3
*Paper_Space0
  1

  0
ENDBLK
  5
25
330
23
100
AcDbEntity
  8
0
100
AcDbBlockEnd
  0
ENDSEC
  0
SECTION
  2
ENTITIES
  0
SPLINE
  5
41
330
1F
100
AcDbEntity
  8
Layer 1
 62
   250
370
     9
100
AcDbSpline
210
0.0
220
0.0
230
1.0
 70
    27
 71
     3
 72
     8
 73
     4
 74
     0
 42
0.0000000001
 43
0.0000000001
 40
0.0
 40
0.0
 40
0.0
 40
0.0
 40
1.0
 40
1.0
 40
1.0
 40
1.0
 10
-11.97590551181102
 20
8.933444881889764
 30
0.0
 10
-11.97590551181102
 20
8.933444881889764
 30
0.0
 10
-11.97590551181102
 20
8.933444881889764
 30
0.0
 10
-11.97590551181102
 20
8.933444881889764
 30
0.0
  0
SPLINE
  5
42
330
1F
100
AcDbEntity
  8
Layer 1
 62
   250
370
     9
100
AcDbSpline
210
0.0
220
0.0
230
1.0
 70
    11
 71
     3
 72
    24
 73
    20
 74
     0
 42
0.0000000001
 43
0.0000000001
 40
0.0
 40
0.0
 40
0.0
 40
0.0
 40
0.1666666666666667
 40
0.1666666666666667
 40
0.1666666666666667
 40
0.1666666666666667
 40
0.3333333333333333
 40
0.3333333333333333
 40
0.3333333333333333
 40
0.3333333333333333
 40
0.5
 40
0.5
 40
0.5
 40
0.5
 40
0.6666666666666666
 40
0.6666666666666666
 40
0.6666666666666666
 40
0.6666666666666666
 40
1.0
 40
1.0
 40
1.0
 40
1.0
 10
-10.40323228346457
 20
6.900200787401575
 30
0.0
 10
-10.40323228346457
 20
6.900200787401575
 30
0.0
 10
-10.40323228346457
 20
6.900200787401575
 30
0.0
 10
-10.40323228346457
 20
6.900200787401575
 30
0.0
 10
-10.40323228346457
 20
6.900200787401575
 30
0.0
 10
-10.40323228346457
 20
6.858791338582678
 30
0.0
 10
-10.36964566929134
 20
6.825200787401575
 30
0.0
 10
-10.32823228346457
 20
6.825200787401575
 30
0.0
 10
-10.32823228346457
 20
6.825200787401575
 30
0.0
 10
-10.28683070866142
 20
6.825200787401575
 30
0.0
 10
-10.25323228346457
 20
6.858791338582678
 30
0.0
 10
-10.25323228346457
 20
6.900200787401575
 30
0.0
 10
-10.25323228346457
 20
6.900200787401575
 30
0.0
 10
-10.25323228346457
 20
6.941614173228347
 30
0.0
 10
-10.28683070866142
 20
6.975192913385826
 30
0.0
 10
-10.32823228346457
 20
6.975192913385826
 30
0.0
 10
-10.32823228346457
 20
6.975192913385826
 30
0.0
 10
-10.36964566929134
 20
6.975192913385826
 30
0.0
 10
-10.40323228346457
 20
6.941614173228347
 30
0.0
 10
-10.40323228346457
 20
6.900200787401575
 30
0.0
  0
SPLINE
  5
43
330
1F
100
AcDbEntity
  8
Layer 1
 62
   250
370
     9
100
AcDbSpline
210
0.0
220
0.0
230
1.0
 70
     8
 71
     3
 72
    12
 73
     8
 74
     0
 42
0.0000000001
 43
0.0000000001
 40
0.0
 40
0.0
 40
0.0
 40
0.0
 40
0.3333333333333333
 40
0.3333333333333333
 40
0.3333333333333333
 40
0.3333333333333333
 40
1.0
 40
1.0
 40
1.0
 40
1.0
 10
-8.844862204724409
 20
7.051425196850394
 30
0.0
 10
-8.92064566929134
 20
7.80251968503937
 30
0.0
 10
-9.555370078740157
 20
8.389405511811024
 30
0.0
 10
-10.32632283464567
 20
8.389405511811024
 30
0.0
 10
-10.32632283464567
 20
8.389405511811024
 30
0.0
 10
-11.14826771653543
 20
8.389405511811024
 30
0.0
 10
-11.81535039370079
 20
7.722318897637796
 30
0.0
 10
-11.81535039370079
 20
6.900362204724409
 30
0.0
  0
SPLINE
  5
44
330
1F
100
AcDbEntity
  8
Layer 1
 62
   250
370
     9
100
AcDbSpline
210
0.0
220
0.0
230
1.0
 70
    27
 71
     3
 72
     8
 73
     4
 74
     0
 42
0.0000000001
 43
0.0000000001
 40
0.0
 40
0.0
 40
0.0
 40
0.0
 40
1.0
 40
1.0
 40
1.0
 40
1.0
 10
-11.81535826771653
 20
6.900362204724409
 30
0.0
 10
-11.81535826771653
 20
6.900362204724409
 30
0.0
 10
-11.81535826771653
 20
6.900362204724409
 30
0.0
 10
-11.81535826771653
 20
6.900362204724409
 30
0.0
  0
SPLINE
  5
45
330
1F
100
AcDbEntity
  8
Layer 1
 62
   250
370
    35
100
AcDbSpline
210
0.0
220
0.0
230
1.0
 70
     8
 71
     3
 72
    12
 73
     8
 74
     0
 42
0.0000000001
 43
0.0000000001
 40
0.0
 40
0.0
 40
0.0
 40
0.0
 40
0.3333333333333333
 40
0.3333333333333333
 40
0.3333333333333333
 40
0.3333333333333333
 40
1.0
 40
1.0
 40
1.0
 40
1.0
 10
-9.050003937007874
 20
6.900362204724409
 30
0.0
 10
-9.050003937007874
 20
7.604905511811023
 30
0.0
 10
-9.621795275590552
 20
8.1766968503937
 30
0.0
 10
-10.32632283464567
 20
8.1766968503937
 30
0.0
 10
-10.32632283464567
 20
8.1766968503937
 30
0.0
 10
-11.03085039370079
 20
8.1766968503937
 30
0.0
 10
-11.60264173228346
 20
7.604905511811023
 30
0.0
 10
-11.60264173228346
 20
6.900362204724409
 30
0.0
  0
SPLINE
  5
46
330
1F
100
AcDbEntity
  8
Layer 1
 62
   250
370
     9
100
AcDbSpline
210
0.0
220
0.0
230
1.0
 70
    27
 71
     3
 72
     8
 73
     4
 74
     0
 42
0.0000000001
 43
0.0000000001
 40
0.0
 40
0.0
 40
0.0
 40
0.0
 40
1.0
 40
1.0
 40
1.0
 40
1.0
 10
-11.60264173228346
 20
6.900362204724409
 30
0.0
 10
-11.60264173228346
 20
6.900362204724409
 30
0.0
 10
-11.60264173228346
 20
6.900362204724409
 30
0.0
 10
-11.60264173228346
 20
6.900362204724409
 30
0.0
  0
SPLINE
  5
47
330
1F
100
AcDbEntity
  8
Layer 1
 62
   250
370
    35
100
AcDbSpline
210
0.0
220
0.0
230
1.0
 70
    24
 71
     3
 72
     8
 73
     4
 74
     0
 42
0.0000000001
 43
0.0000000001
 40
0.0
 40
0.0
 40
0.0
 40
0.0
 40
1.0
 40
1.0
 40
1.0
 40
1.0
 10
-9.054866141732283
 20
7.011610236220473
 30
0.0
 10
-9.054866141732283
 20
7.011610236220473
 30
0.0
 10
-8.842948818897638
 20
7.030149606299212
 30
0.0
 10
-8.842948818897638
 20
7.030149606299212
 30
0.0
  0
SPLINE
  5
48
330
1F
100
AcDbEntity
  8
Layer 1
 62
   250
370
    35
100
AcDbSpline
210
0.0
220
0.0
230
1.0
 70
    24
 71
     3
 72
     8
 73
     4
 74
     0
 42
0.0000000001
 43
0.0000000001
 40
0.0
 40
0.0
 40
0.0
 40
0.0
 40
1.0
 40
1.0
 40
1.0
 40
1.0
 10
-9.093488188976378
 20
7.230712598425197
 30
0.0
 10
-9.093488188976378
 20
7.230712598425197
 30
0.0
 10
-8.888031496062991
 20
7.285779527559055
 30
0.0
 10
-8.888031496062991
 20
7.285779527559055
 30
0.0
  0
SPLINE
  5
49
330
1F
100
AcDbEntity
  8
Layer 1
 62
   250
370
    35
100
AcDbSpline
210
0.0
220
0.0
230
1.0
 70
    24
 71
     3
 72
     8
 73
     4
 74
     0
 42
0.0000000001
 43
0.0000000001
 40
0.0
 40
0.0
 40
0.0
 40
0.0
 40
1.0
 40
1.0
 40
1.0
 40
1.0
 10
-9.169586614173229
 20
7.439763779527559
 30
0.0
 10
-9.169586614173229
 20
7.439763779527559
 30
0.0
 10
-8.97679527559055
 20
7.529665354330708
 30
0.0
 10
-8.97679527559055
 20
7.529665354330708
 30
0.0
  0
SPLINE
  5
4A
330
1F
100
AcDbEntity
  8
Layer 1
 62
   250
370
    35
100
AcDbSpline
210
0.0
220
0.0
230
1.0
 70
    24
 71
     3
 72
     8
 73
     4
 74
     0
 42
0.0000000001
 43
0.0000000001
 40
0.0
 40
0.0
 40
0.0
 40
0.0
 40
1.0
 40
1.0
 40
1.0
 40
1.0
 10
-9.280818897637795
 20
7.632433070866142
 30
0.0
 10
-9.280818897637795
 20
7.632433070866142
 30
0.0
 10
-9.106566929133859
 20
7.754444881889764
 30
0.0
 10
-9.106566929133859
 20
7.754444881889764
 30
0.0
  0
SPLINE
  5
4B
330
1F
100
AcDbEntity
  8
Layer 1
 62
   250
370
    35
100
AcDbSpline
210
0.0
220
0.0
230
1.0
 70
    24
 71
     3
 72
     8
 73
     4
 74
     0
 42
0.0000000001
 43
0.0000000001
 40
0.0
 40
0.0
 40
0.0
 40
0.0
 40
1.0
 40
1.0
 40
1.0
 40
1.0
 10
-9.594259842519685
 20
7.945866141732283
 30
0.0
 10
-9.594259842519685
 20
7.945866141732283
 30
0.0
 10
-9.472248031496063
 20
8.12011811023622
 30
0.0
 10
-9.472248031496063
 20
8.12011811023622
 30
0.0
  0
SPLINE
  5
4C
330
1F
100
AcDbEntity
  8
Layer 1
 62
   250
370
    35
100
AcDbSpline
210
0.0
220
0.0
230
1.0
 70
    24
 71
     3
 72
     8
 73
     4
 74
     0
 42
0.0000000001
 43
0.0000000001
 40
0.0
 40
0.0
 40
0.0
 40
0.0
 40
1.0
 40
1.0
 40
1.0
 40
1.0
 10
-9.786937007874016
 20
8.057114173228346
 30
0.0
 10
-9.786937007874016
 20
8.057114173228346
 30
0.0
 10
-9.697031496062992
 20
8.249889763779528
 30
0.0
 10
-9.697031496062992
 20
8.249889763779528
 30
0.0
  0
SPLINE
  5
4D
330
1F
100
AcDbEntity
  8
Layer 1
 62
   250
370
    35
100
AcDbSpline
210
0.0
220
0.0
230
1.0
 70
    24
 71
     3
 72
     8
 73
     4
 74
     0
 42
0.0000000001
 43
0.0000000001
 40
0.0
 40
0.0
 40
0.0
 40
0.0
 40
1.0
 40
1.0
 40
1.0
 40
1.0
 10
-9.995988188976378
 20
8.133192913385827
 30
0.0
 10
-9.995988188976378
 20
8.133192913385827
 30
0.0
 10
-9.940944881889763
 20
8.33867716535433
 30
0.0
 10
-9.940944881889763
 20
8.33867716535433
 30
0.0
  0
SPLINE
  5
4E
330
1F
100
AcDbEntity
  8
Layer 1
 62
   250
370
    35
100
AcDbSpline
210
0.0
220
0.0
230
1.0
 70
    24
 71
     3
 72
     8
 73
     4
 74
     0
 42
0.0000000001
 43
0.0000000001
 40
0.0
 40
0.0
 40
0.0
 40
0.0
 40
1.0
 40
1.0
 40
1.0
 40
1.0
 10
-10.21508267716535
 20
8.171818897637795
 30
0.0
 10
-10.21508267716535
 20
8.171818897637795
 30
0.0
 10
-10.19654330708661
 20
8.383736220472441
 30
0.0
 10
-10.19654330708661
 20
8.383736220472441
 30
0.0
  0
SPLINE
  5
4F
330
1F
100
AcDbEntity
  8
Layer 1
 62
   250
370
    35
100
AcDbSpline
210
0.0
220
0.0
230
1.0
 70
    24
 71
     3
 72
     8
 73
     4
 74
     0
 42
0.0000000001
 43
0.0000000001
 40
0.0
 40
0.0
 40
0.0
 40
0.0
 40
1.0
 40
1.0
 40
1.0
 40
1.0
 10
-10.43756299212598
 20
8.171818897637795
 30
0.0
 10
-10.43756299212598
 20
8.171818897637795
 30
0.0
 10
-10.4560905511811
 20
8.383736220472441
 30
0.0
 10
-10.4560905511811
 20
8.383736220472441
 30
0.0
  0
SPLINE
  5
50
330
1F
100
AcDbEntity
  8
Layer 1
 62
   250
370
    35
100
AcDbSpline
210
0.0
220
0.0
230
1.0
 70
    24
 71
     3
 72
     8
 73
     4
 74
     0
 42
0.0000000001
 43
0.0000000001
 40
0.0
 40
0.0
 40
0.0
 40
0.0
 40
1.0
 40
1.0
 40
1.0
 40
1.0
 10
-10.86571653543307
 20
8.057114173228346
 30
0.0
 10
-10.86571653543307
 20
8.057114173228346
 30
0.0
 10
-10.95562204724409
 20
8.249905511811024
 30
0.0
 10
-10.95562204724409
 20
8.249905511811024
 30
0.0
  0
SPLINE
  5
51
330
1F
100
AcDbEntity
  8
Layer 1
 62
   250
370
    35
100
AcDbSpline
210
0.0
220
0.0
230
1.0
 70
    24
 71
     3
 72
     8
 73
     4
 74
     0
 42
0.0000000001
 43
0.0000000001
 40
0.0
 40
0.0
 40
0.0
 40
0.0
 40
1.0
 40
1.0
 40
1.0
 40
1.0
 10
-11.05838582677165
 20
7.945866141732283
 30
0.0
 10
-11.05838582677165
 20
7.945866141732283
 30
0.0
 10
-11.18039763779528
 20
8.12011811023622
 30
0.0
 10
-11.18039763779528
 20
8.12011811023622
 30
0.0
  0
SPLINE
  5
52
330
1F
100
AcDbEntity
  8
Layer 1
 62
   250
370
    35
100
AcDbSpline
210
0.0
220
0.0
230
1.0
 70
    24
 71
     3
 72
     8
 73
     4
 74
     0
 42
0.0000000001
 43
0.0000000001
 40
0.0
 40
0.0
 40
0.0
 40
0.0
 40
1.0
 40
1.0
 40
1.0
 40
1.0
 10
-11.37182283464567
 20
7.632433070866142
 30
0.0
 10
-11.37182283464567
 20
7.632433070866142
 30
0.0
 10
-11.54607086614173
 20
7.754444881889764
 30
0.0
 10
-11.54607086614173
 20
7.754444881889764
 30
0.0
  0
SPLINE
  5
53
330
1F
100
AcDbEntity
  8
Layer 1
 62
   250
370
    35
100
AcDbSpline
210
0.0
220
0.0
230
1.0
 70
    24
 71
     3
 72
     8
 73
     4
 74
     0
 42
0.0000000001
 43
0.0000000001
 40
0.0
 40
0.0
 40
0.0
 40
0.0
 40
1.0
 40
1.0
 40
1.0
 40
1.0
 10
-11.48306299212598
 20
7.439763779527559
 30
0.0
 10
-11.48306299212598
 20
7.439763779527559
 30
0.0
 10
-11.67585433070866
 20
7.529665354330708
 30
0.0
 10
-11.67585433070866
 20
7.529665354330708
 30
0.0
  0
SPLINE
  5
54
330
1F
100
AcDbEntity
  8
Layer 1
 62
   250
370
    35
100
AcDbSpline
210
0.0
220
0.0
230
1.0
 70
    24
 71
     3
 72
     8
 73
     4
 74
     0
 42
0.0000000001
 43
0.0000000001
 40
0.0
 40
0.0
 40
0.0
 40
0.0
 40
1.0
 40
1.0
 40
1.0
 40
1.0
 10
-11.55915354330709
 20
7.230712598425197
 30
0.0
 10
-11.55915354330709
 20
7.230712598425197
 30
0.0
 10
-11.76462204724409
 20
7.285779527559055
 30
0.0
 10
-11.76462204724409
 20
7.285779527559055
 30
0.0
  0
SPLINE
  5
55
330
1F
100
AcDbEntity
  8
Layer 1
 62
   250
370
    35
100
AcDbSpline
210
0.0
220
0.0
230
1.0
 70
    24
 71
     3
 72
     8
 73
     4
 74
     0
 42
0.0000000001
 43
0.0000000001
 40
0.0
 40
0.0
 40
0.0
 40
0.0
 40
1.0
 40
1.0
 40
1.0
 40
1.0
 10
-11.5977874015748
 20
7.011610236220473
 30
0.0
 10
-11.5977874015748
 20
7.011610236220473
 30
0.0
 10
-11.80970472440945
 20
7.030149606299212
 30
0.0
 10
-11.80970472440945
 20
7.030149606299212
 30
0.0
  0
SPLINE
  5
56
330
1F
100
AcDbEntity
  8
Layer 1
 62
   250
370
   106
100
AcDbSpline
210
0.0
220
0.0
230
1.0
 70
     8
 71
     3
 72
     8
 73
     4
 74
     0
 42
0.0000000001
 43
0.0000000001
 40
0.0
 40
0.0
 40
0.0
 40
0.0
 40
1.0
 40
1.0
 40
1.0
 40
1.0
 10
-11.16439763779528
 20
7.048133858267716
 30
0.0
 10
-11.17281496062992
 20
7.000133858267716
 30
0.0
 10
-11.17720472440945
 20
6.950759842519685
 30
0.0
 10
-11.17720472440945
 20
6.900358267716536
 30
0.0
  0
SPLINE
  5
57
330
1F
100
AcDbEntity
  8
Layer 1
 62
   250
370
     9
100
AcDbSpline
210
0.0
220
0.0
230
1.0
 70
     8
 71
     3
 72
    12
 73
     8
 74
     0
 42
0.0000000001
 43
0.0000000001
 40
0.0
 40
0.0
 40
0.0
 40
0.0
 40
0.3333333333333333
 40
0.3333333333333333
 40
0.3333333333333333
 40
0.3333333333333333
 40
1.0
 40
1.0
 40
1.0
 40
1.0
 10
-9.488248031496063
 20
7.048133858267716
 30
0.0
 10
-9.55826377952756
 20
7.447456692913386
 30
0.0
 10
-9.90703937007874
 20
7.751248031496063
 30
0.0
 10
-10.3263188976378
 20
7.751248031496063
 30
0.0
 10
-10.3263188976378
 20
7.751248031496063
 30
0.0
 10
-10.74561023622047
 20
7.751248031496063
 30
0.0
 10
-11.09438976377953
 20
7.447456692913386
 30
0.0
 10
-11.16440157480315
 20
7.048133858267716
 30
0.0
  0
SPLINE
  5
58
330
1F
100
AcDbEntity
  8
Layer 1
 62
   250
370
   106
100
AcDbSpline
210
0.0
220
0.0
230
1.0
 70
     8
 71
     3
 72
     8
 73
     4
 74
     0
 42
0.0000000001
 43
0.0000000001
 40
0.0
 40
0.0
 40
0.0
 40
0.0
 40
1.0
 40
1.0
 40
1.0
 40
1.0
 10
-9.475440944881889
 20
6.900362204724409
 30
0.0
 10
-9.475440944881889
 20
6.950751968503937
 30
0.0
 10
-9.479826771653544
 20
7.000137795275591
 30
0.0
 10
-9.48824409448819
 20
7.048137795275591
 30
0.0
  0
SPLINE
  5
59
330
1F
100
AcDbEntity
  8
Layer 1
 62
   250
370
     9
100
AcDbSpline
210
0.0
220
0.0
230
1.0
 70
    27
 71
     3
 72
     8
 73
     4
 74
     0
 42
0.0000000001
 43
0.0000000001
 40
0.0
 40
0.0
 40
0.0
 40
0.0
 40
1.0
 40
1.0
 40
1.0
 40
1.0
 10
-11.17720078740157
 20
6.900362204724409
 30
0.0
 10
-11.17720078740157
 20
6.900362204724409
 30
0.0
 10
-11.17720078740157
 20
6.900362204724409
 30
0.0
 10
-11.17720078740157
 20
6.900362204724409
 30
0.0
  0
SPLINE
  5
5A
330
1F
100
AcDbEntity
  8
Layer 1
 62
   250
370
   106
100
AcDbSpline
210
0.0
220
0.0
230
1.0
 70
    24
 71
     3
 72
     8
 73
     4
 74
     0
 42
0.0000000001
 43
0.0000000001
 40
0.0
 40
0.0
 40
0.0
 40
0.0
 40
1.0
 40
1.0
 40
1.0
 40
1.0
 10
-9.488366141732284
 20
7.048122047244094
 30
0.0
 10
-9.488366141732284
 20
7.048122047244094
 30
0.0
 10
-8.859905511811023
 20
7.158940944881889
 30
0.0
 10
-8.859905511811023
 20
7.158940944881889
 30
0.0
  0
SPLINE
  5
5B
330
1F
100
AcDbEntity
  8
Layer 1
 62
   250
370
   106
100
AcDbSpline
210
0.0
220
0.0
230
1.0
 70
    24
 71
     3
 72
     8
 73
     4
 74
     0
 42
0.0000000001
 43
0.0000000001
 40
0.0
 40
0.0
 40
0.0
 40
0.0
 40
1.0
 40
1.0
 40
1.0
 40
1.0
 10
-9.526755905511811
 20
7.191377952755905
 30
0.0
 10
-9.526755905511811
 20
7.191377952755905
 30
0.0
 10
-8.927090551181102
 20
7.409653543307087
 30
0.0
 10
-8.927090551181102
 20
7.409653543307087
 30
0.0
  0
SPLINE
  5
5C
330
1F
100
AcDbEntity
  8
Layer 1
 62
   250
370
   106
100
AcDbSpline
210
0.0
220
0.0
230
1.0
 70
    24
 71
     3
 72
     8
 73
     4
 74
     0
 42
0.0000000001
 43
0.0000000001
 40
0.0
 40
0.0
 40
0.0
 40
0.0
 40
1.0
 40
1.0
 40
1.0
 40
1.0
 10
-9.58944094488189
 20
7.325803149606299
 30
0.0
 10
-9.58944094488189
 20
7.325803149606299
 30
0.0
 10
-9.036771653543306
 20
7.644885826771653
 30
0.0
 10
-9.036771653543306
 20
7.644885826771653
 30
0.0
  0
SPLINE
  5
5D
330
1F
100
AcDbEntity
  8
Layer 1
 62
   250
370
   106
100
AcDbSpline
210
0.0
220
0.0
230
1.0
 70
    24
 71
     3
 72
     8
 73
     4
 74
     0
 42
0.0000000001
 43
0.0000000001
 40
0.0
 40
0.0
 40
0.0
 40
0.0
 40
1.0
 40
1.0
 40
1.0
 40
1.0
 10
-9.674507874015749
 20
7.447291338582677
 30
0.0
 10
-9.674507874015749
 20
7.447291338582677
 30
0.0
 10
-9.185661417322835
 20
7.8575
 30
0.0
 10
-9.185661417322835
 20
7.8575
 30
0.0
  0
SPLINE
  5
5E
330
1F
100
AcDbEntity
  8
Layer 1
 62
   250
370
   106
100
AcDbSpline
210
0.0
220
0.0
230
1.0
 70
    24
 71
     3
 72
     8
 73
     4
 74
     0
 42
0.0000000001
 43
0.0000000001
 40
0.0
 40
0.0
 40
0.0
 40
0.0
 40
1.0
 40
1.0
 40
1.0
 40
1.0
 10
-9.779393700787402
 20
7.552177165354331
 30
0.0
 10
-9.779393700787402
 20
7.552177165354331
 30
0.0
 10
-9.369185039370079
 20
8.041023622047245
 30
0.0
 10
-9.369185039370079
 20
8.041023622047245
 30
0.0
  0
SPLINE
  5
5F
330
1F
100
AcDbEntity
  8
Layer 1
 62
   250
370
   106
100
AcDbSpline
210
0.0
220
0.0
230
1.0
 70
    24
 71
     3
 72
     8
 73
     4
 74
     0
 42
0.0000000001
 43
0.0000000001
 40
0.0
 40
0.0
 40
0.0
 40
0.0
 40
1.0
 40
1.0
 40
1.0
 40
1.0
 10
-9.900889763779528
 20
7.637259842519685
 30
0.0
 10
-9.900889763779528
 20
7.637259842519685
 30
0.0
 10
-9.5818031496063
 20
8.189925196850394
 30
0.0
 10
-9.5818031496063
 20
8.189925196850394
 30
0.0
  0
SPLINE
  5
60
330
1F
100
AcDbEntity
  8
Layer 1
 62
   250
370
   106
100
AcDbSpline
210
0.0
220
0.0
230
1.0
 70
    24
 71
     3
 72
     8
 73
     4
 74
     0
 42
0.0000000001
 43
0.0000000001
 40
0.0
 40
0.0
 40
0.0
 40
0.0
 40
1.0
 40
1.0
 40
1.0
 40
1.0
 10
-10.03531496062992
 20
7.69992125984252
 30
0.0
 10
-10.03531496062992
 20
7.69992125984252
 30
0.0
 10
-9.817035433070867
 20
8.299602362204725
 30
0.0
 10
-9.817035433070867
 20
8.299602362204725
 30
0.0
  0
SPLINE
  5
61
330
1F
100
AcDbEntity
  8
Layer 1
 62
   250
370
   106
100
AcDbSpline
210
0.0
220
0.0
230
1.0
 70
    24
 71
     3
 72
     8
 73
     4
 74
     0
 42
0.0000000001
 43
0.0000000001
 40
0.0
 40
0.0
 40
0.0
 40
0.0
 40
1.0
 40
1.0
 40
1.0
 40
1.0
 10
-10.17857086614173
 20
7.738318897637796
 30
0.0
 10
-10.17857086614173
 20
7.738318897637796
 30
0.0
 10
-10.06775196850394
 20
8.366779527559055
 30
0.0
 10
-10.06775196850394
 20
8.366779527559055
 30
0.0
  0
SPLINE
  5
62
330
1F
100
AcDbEntity
  8
Layer 1
 62
   250
370
   106
100
AcDbSpline
210
0.0
220
0.0
230
1.0
 70
    24
 71
     3
 72
     8
 73
     4
 74
     0
 42
0.0000000001
 43
0.0000000001
 40
0.0
 40
0.0
 40
0.0
 40
0.0
 40
1.0
 40
1.0
 40
1.0
 40
1.0
 10
-10.47407480314961
 20
7.738318897637796
 30
0.0
 10
-10.47407480314961
 20
7.738318897637796
 30
0.0
 10
-10.5848937007874
 20
8.366779527559055
 30
0.0
 10
-10.5848937007874
 20
8.366779527559055
 30
0.0
  0
SPLINE
  5
63
330
1F
100
AcDbEntity
  8
Layer 1
 62
   250
370
   106
100
AcDbSpline
210
0.0
220
0.0
230
1.0
 70
    24
 71
     3
 72
     8
 73
     4
 74
     0
 42
0.0000000001
 43
0.0000000001
 40
0.0
 40
0.0
 40
0.0
 40
0.0
 40
1.0
 40
1.0
 40
1.0
 40
1.0
 10
-10.61733858267717
 20
7.69992125984252
 30
0.0
 10
-10.61733858267717
 20
7.69992125984252
 30
0.0
 10
-10.8355905511811
 20
8.299574803149607
 30
0.0
 10
-10.8355905511811
 20
8.299574803149607
 30
0.0
  0
SPLINE
  5
64
330
1F
100
AcDbEntity
  8
Layer 1
 62
   250
370
   106
100
AcDbSpline
210
0.0
220
0.0
230
1.0
 70
    24
 71
     3
 72
     8
 73
     4
 74
     0
 42
0.0000000001
 43
0.0000000001
 40
0.0
 40
0.0
 40
0.0
 40
0.0
 40
1.0
 40
1.0
 40
1.0
 40
1.0
 10
-10.75176377952756
 20
7.637259842519685
 30
0.0
 10
-10.75176377952756
 20
7.637259842519685
 30
0.0
 10
-11.07083464566929
 20
8.189897637795276
 30
0.0
 10
-11.07083464566929
 20
8.189897637795276
 30
0.0
  0
SPLINE
  5
65
330
1F
100
AcDbEntity
  8
Layer 1
 62
   250
370
   106
100
AcDbSpline
210
0.0
220
0.0
230
1.0
 70
    24
 71
     3
 72
     8
 73
     4
 74
     0
 42
0.0000000001
 43
0.0000000001
 40
0.0
 40
0.0
 40
0.0
 40
0.0
 40
1.0
 40
1.0
 40
1.0
 40
1.0
 10
-10.87325196850394
 20
7.552177165354331
 30
0.0
 10
-10.87325196850394
 20
7.552177165354331
 30
0.0
 10
-11.28343307086614
 20
8.040996062992125
 30
0.0
 10
-11.28343307086614
 20
8.040996062992125
 30
0.0
  0
SPLINE
  5
66
330
1F
100
AcDbEntity
  8
Layer 1
 62
   250
370
   106
100
AcDbSpline
210
0.0
220
0.0
230
1.0
 70
    24
 71
     3
 72
     8
 73
     4
 74
     0
 42
0.0000000001
 43
0.0000000001
 40
0.0
 40
0.0
 40
0.0
 40
0.0
 40
1.0
 40
1.0
 40
1.0
 40
1.0
 10
-10.97812992125984
 20
7.447291338582677
 30
0.0
 10
-10.97812992125984
 20
7.447291338582677
 30
0.0
 10
-11.46700787401575
 20
7.857511811023622
 30
0.0
 10
-11.46700787401575
 20
7.857511811023622
 30
0.0
  0
SPLINE
  5
67
330
1F
100
AcDbEntity
  8
Layer 1
 62
   250
370
   106
100
AcDbSpline
210
0.0
220
0.0
230
1.0
 70
    24
 71
     3
 72
     8
 73
     4
 74
     0
 42
0.0000000001
 43
0.0000000001
 40
0.0
 40
0.0
 40
0.0
 40
0.0
 40
1.0
 40
1.0
 40
1.0
 40
1.0
 10
-11.06320866141732
 20
7.325803149606299
 30
0.0
 10
-11.06320866141732
 20
7.325803149606299
 30
0.0
 10
-11.61588976377953
 20
7.64490157480315
 30
0.0
 10
-11.61588976377953
 20
7.64490157480315
 30
0.0
  0
SPLINE
  5
68
330
1F
100
AcDbEntity
  8
Layer 1
 62
   250
370
   106
100
AcDbSpline
210
0.0
220
0.0
230
1.0
 70
    24
 71
     3
 72
     8
 73
     4
 74
     0
 42
0.0000000001
 43
0.0000000001
 40
0.0
 40
0.0
 40
0.0
 40
0.0
 40
1.0
 40
1.0
 40
1.0
 40
1.0
 10
-11.12587795275591
 20
7.191377952755905
 30
0.0
 10
-11.12587795275591
 20
7.191377952755905
 30
0.0
 10
-11.7255157480315
 20
7.409625984251969
 30
0.0
 10
-11.7255157480315
 20
7.409625984251969
 30
0.0
  0
SPLINE
  5
69
330
1F
100
AcDbEntity
  8
Layer 1
 62
   250
370
   106
100
AcDbSpline
210
0.0
220
0.0
230
1.0
 70
    24
 71
     3
 72
     8
 73
     4
 74
     0
 42
0.0000000001
 43
0.0000000001
 40
0.0
 40
0.0
 40
0.0
 40
0.0
 40
1.0
 40
1.0
 40
1.0
 40
1.0
 10
-11.16427559055118
 20
7.048122047244094
 30
0.0
 10
-11.16427559055118
 20
7.048122047244094
 30
0.0
 10
-11.79273228346457
 20
7.158940944881889
 30
0.0
 10
-11.79273228346457
 20
7.158940944881889
 30
0.0
  0
SPLINE
  5
6A
330
1F
100
AcDbEntity
  8
Layer 1
 62
   250
370
   106
100
AcDbSpline
210
0.0
220
0.0
230
1.0
 70
    24
 71
     3
 72
     8
 73
     4
 74
     0
 42
0.0000000001
 43
0.0000000001
 40
0.0
 40
0.0
 40
0.0
 40
0.0
 40
1.0
 40
1.0
 40
1.0
 40
1.0
 10
-11.10100787401575
 20
6.900362204724409
 30
0.0
 10
-11.10100787401575
 20
6.900362204724409
 30
0.0
 10
-11.79303543307087
 20
6.900362204724409
 30
0.0
 10
-11.79303543307087
 20
6.900362204724409
 30
0.0
  0
SPLINE
  5
6B
330
1F
100
AcDbEntity
  8
Layer 1
 62
   250
370
   106
100
AcDbSpline
210
0.0
220
0.0
230
1.0
 70
    24
 71
     3
 72
     8
 73
     4
 74
     0
 42
0.0000000001
 43
0.0000000001
 40
0.0
 40
0.0
 40
0.0
 40
0.0
 40
1.0
 40
1.0
 40
1.0
 40
1.0
 10
-10.43132677165354
 20
6.900362204724409
 30
0.0
 10
-10.43132677165354
 20
6.900362204724409
 30
0.0
 10
-11.81535433070866
 20
6.900362204724409
 30
0.0
 10
-11.81535433070866
 20
6.900362204724409
 30
0.0
  0
SPLINE
  5
6C
330
1F
100
AcDbEntity
  8
Layer 1
 62
   250
370
   106
100
AcDbSpline
210
0.0
220
0.0
230
1.0
 70
    24
 71
     3
 72
     8
 73
     4
 74
     0
 42
0.0000000001
 43
0.0000000001
 40
0.0
 40
0.0
 40
0.0
 40
0.0
 40
1.0
 40
1.0
 40
1.0
 40
1.0
 10
-10.22133070866142
 20
6.900362204724409
 30
0.0
 10
-10.22133070866142
 20
6.900362204724409
 30
0.0
 10
-0.3052874015748032
 20
6.89998031496063
 30
0.0
 10
-0.3052874015748032
 20
6.89998031496063
 30
0.0
  0
SPLINE
  5
6D
330
1F
100
AcDbEntity
  8
Layer 1
 62
   250
370
    35
100
AcDbSpline
210
0.0
220
0.0
230
1.0
 70
    24
 71
     3
 72
     8
 73
     4
 74
     0
 42
0.0000000001
 43
0.0000000001
 40
0.0
 40
0.0
 40
0.0
 40
0.0
 40
1.0
 40
1.0
 40
1.0
 40
1.0
 10
-9.430102362204725
 20
7.796586614173228
 30
0.0
 10
-9.430102362204725
 20
7.796586614173228
 30
0.0
 10
-9.27342125984252
 20
7.953255905511811
 30
0.0
 10
-9.27342125984252
 20
7.953255905511811
 30
0.0
  0
SPLINE
  5
6E
330
1F
100
AcDbEntity
  8
Layer 1
 62
   250
370
   106
100
AcDbSpline
210
0.0
220
0.0
230
1.0
 70
    24
 71
     3
 72
     8
 73
     4
 74
     0
 42
0.0000000001
 43
0.0000000001
 40
0.0
 40
0.0
 40
0.0
 40
0.0
 40
1.0
 40
1.0
 40
1.0
 40
1.0
 10
-10.32632283464567
 20
7.751248031496063
 30
0.0
 10
-10.32632283464567
 20
7.751248031496063
 30
0.0
 10
-10.32632283464567
 20
8.389397637795275
 30
0.0
 10
-10.32632283464567
 20
8.389397637795275
 30
0.0
  0
SPLINE
  5
6F
330
1F
100
AcDbEntity
  8
Layer 1
 62
   250
370
    35
100
AcDbSpline
210
0.0
220
0.0
230
1.0
 70
    24
 71
     3
 72
     8
 73
     4
 74
     0
 42
0.0000000001
 43
0.0000000001
 40
0.0
 40
0.0
 40
0.0
 40
0.0
 40
1.0
 40
1.0
 40
1.0
 40
1.0
 10
-11.2346811023622
 20
7.808728346456693
 30
0.0
 10
-11.2346811023622
 20
7.808728346456693
 30
0.0
 10
-11.37920866141732
 20
7.953255905511811
 30
0.0
 10
-11.37920866141732
 20
7.953255905511811
 30
0.0
  0
SPLINE
  5
70
330
1F
100
AcDbEntity
  8
Layer 1
 62
   250
370
     9
100
AcDbSpline
210
0.0
220
0.0
230
1.0
 70
    24
 71
     3
 72
     8
 73
     4
 74
     0
 42
0.0000000001
 43
0.0000000001
 40
0.0
 40
0.0
 40
0.0
 40
0.0
 40
1.0
 40
1.0
 40
1.0
 40
1.0
 10
-11.81535826771653
 20
6.892578740157481
 30
0.0
 10
-11.81535826771653
 20
6.892578740157481
 30
0.0
 10
-11.81535826771653
 20
6.745358267716536
 30
0.0
 10
-11.81535826771653
 20
6.745358267716536
 30
0.0
  0
SPLINE
  5
71
330
1F
100
AcDbEntity
  8
Layer 1
 62
   250
370
    35
100
AcDbSpline
210
0.0
220
0.0
230
1.0
 70
    24
 71
     3
 72
     8
 73
     4
 74
     0
 42
0.0000000001
 43
0.0000000001
 40
0.0
 40
0.0
 40
0.0
 40
0.0
 40
1.0
 40
1.0
 40
1.0
 40
1.0
 10
-10.65565748031496
 20
8.133192913385827
 30
0.0
 10
-10.65565748031496
 20
8.133192913385827
 30
0.0
 10
-10.7107125984252
 20
8.33867716535433
 30
0.0
 10
-10.7107125984252
 20
8.33867716535433
 30
0.0
  0
SPLINE
  5
72
330
1F
100
AcDbEntity
  8
Layer 1
 62
   250
370
     9
100
AcDbSpline
210
0.0
220
0.0
230
1.0
 70
     8
 71
     3
 72
    20
 73
    16
 74
     0
 42
0.0000000001
 43
0.0000000001
 40
0.0
 40
0.0
 40
0.0
 40
0.0
 40
0.2
 40
0.2
 40
0.2
 40
0.2
 40
0.4
 40
0.4
 40
0.4
 40
0.4
 40
0.6
 40
0.6
 40
0.6
 40
0.6
 40
1.0
 40
1.0
 40
1.0
 40
1.0
 10
-8.844862204724409
 20
7.051425196850394
 30
0.0
 10
-8.844862204724409
 20
7.051425196850394
 30
0.0
 10
-0.0005984251968504
 20
7.048125984251969
 30
0.0
 10
-0.0005984251968504
 20
7.048125984251969
 30
0.0
 10
-0.0005984251968504
 20
7.048125984251969
 30
0.0
 10
-0.0005984251968504
 20
7.048125984251969
 30
0.0
 10
-0.0005984251968504
 20
6.603858267716536
 30
0.0
 10
-0.0005984251968504
 20
6.603858267716536
 30
0.0
 10
-0.0005984251968504
 20
6.603858267716536
 30
0.0
 10
-0.0005984251968504
 20
6.603858267716536
 30
0.0
 10
-11.81878346456693
 20
6.603858267716536
 30
0.0
 10
-11.81878346456693
 20
6.603858267716536
 30
0.0
 10
-11.81878346456693
 20
6.603858267716536
 30
0.0
 10
-11.81878346456693
 20
6.603858267716536
 30
0.0
 10
-11.81467322834646
 20
6.745366141732283
 30
0.0
 10
-11.81467322834646
 20
6.745366141732283
 30
0.0
  0
SPLINE
  5
73
330
1F
100
AcDbEntity
  8
Layer 1
 62
   250
370
     9
100
AcDbSpline
210
0.0
220
0.0
230
1.0
 70
    24
 71
     3
 72
     8
 73
     4
 74
     0
 42
0.0000000001
 43
0.0000000001
 40
0.0
 40
0.0
 40
0.0
 40
0.0
 40
1.0
 40
1.0
 40
1.0
 40
1.0
 10
-9.488366141732284
 20
7.048122047244094
 30
0.0
 10
-9.488366141732284
 20
7.048122047244094
 30
0.0
 10
-11.16427952755905
 20
7.048122047244094
 30
0.0
 10
-11.16427952755905
 20
7.048122047244094
 30
0.0
  0
SPLINE
  5
74
330
1F
100
AcDbEntity
  8
Layer 1
 62
   250
370
   106
100
AcDbSpline
210
0.0
220
0.0
230
1.0
 70
    24
 71
     3
 72
     8
 73
     4
 74
     0
 42
0.0000000001
 43
0.0000000001
 40
0.0
 40
0.0
 40
0.0
 40
0.0
 40
1.0
 40
1.0
 40
1.0
 40
1.0
 10
-4.32753937007874
 20
7.048527559055118
 30
0.0
 10
-4.32753937007874
 20
7.048527559055118
 30
0.0
 10
-4.32753937007874
 20
6.60138188976378
 30
0.0
 10
-4.32753937007874
 20
6.60138188976378
 30
0.0
  0
SPLINE
  5
75
330
1F
100
AcDbEntity
  8
Layer 1
 62
   250
370
   106
100
AcDbSpline
210
0.0
220
0.0
230
1.0
 70
    24
 71
     3
 72
     8
 73
     4
 74
     0
 42
0.0000000001
 43
0.0000000001
 40
0.0
 40
0.0
 40
0.0
 40
0.0
 40
1.0
 40
1.0
 40
1.0
 40
1.0
 10
-5.32753937007874
 20
6.60138188976378
 30
0.0
 10
-5.32753937007874
 20
6.60138188976378
 30
0.0
 10
-5.32753937007874
 20
7.048527559055118
 30
0.0
 10
-5.32753937007874
 20
7.048527559055118
 30
0.0
  0
SPLINE
  5
76
330
1F
100
AcDbEntity
  8
Layer 1
 62
   250
370
   106
100
AcDbSpline
210
0.0
220
0.0
230
1.0
 70
    24
 71
     3
 72
     8
 73
     4
 74
     0
 42
0.0000000001
 43
0.0000000001
 40
0.0
 40
0.0
 40
0.0
 40
0.0
 40
1.0
 40
1.0
 40
1.0
 40
1.0
 10
-8.334484251968505
 20
7.048527559055118
 30
0.0
 10
-8.334484251968505
 20
7.048527559055118
 30
0.0
 10
-8.334484251968505
 20
6.599448818897637
 30
0.0
 10
-8.334484251968505
 20
6.599448818897637
 30
0.0
  0
SPLINE
  5
77
330
1F
100
AcDbEntity
  8
Layer 1
 62
   250
370
   106
100
AcDbSpline
210
0.0
220
0.0
230
1.0
 70
    24
 71
     3
 72
     8
 73
     4
 74
     0
 42
0.0000000001
 43
0.0000000001
 40
0.0
 40
0.0
 40
0.0
 40
0.0
 40
1.0
 40
1.0
 40
1.0
 40
1.0
 10
-9.334484251968505
 20
6.599448818897637
 30
0.0
 10
-9.334484251968505
 20
6.599448818897637
 30
0.0
 10
-9.334484251968505
 20
7.048527559055118
 30
0.0
 10
-9.334484251968505
 20
7.048527559055118
 30
0.0
  0
SPLINE
  5
78
330
1F
100
AcDbEntity
  8
Layer 1
 62
   250
370
   106
100
AcDbSpline
210
0.0
220
0.0
230
1.0
 70
    24
 71
     3
 72
     8
 73
     4
 74
     0
 42
0.0000000001
 43
0.0000000001
 40
0.0
 40
0.0
 40
0.0
 40
0.0
 40
1.0
 40
1.0
 40
1.0
 40
1.0
 10
-2.32753937007874
 20
7.048527559055118
 30
0.0
 10
-2.32753937007874
 20
7.048527559055118
 30
0.0
 10
-2.32753937007874
 20
6.601232283464567
 30
0.0
 10
-2.32753937007874
 20
6.601232283464567
 30
0.0
  0
SPLINE
  5
79
330
1F
100
AcDbEntity
  8
Layer 1
 62
   250
370
   106
100
AcDbSpline
210
0.0
220
0.0
230
1.0
 70
    24
 71
     3
 72
     8
 73
     4
 74
     0
 42
0.0000000001
 43
0.0000000001
 40
0.0
 40
0.0
 40
0.0
 40
0.0
 40
1.0
 40
1.0
 40
1.0
 40
1.0
 10
-3.32753937007874
 20
6.601232283464567
 30
0.0
 10
-3.32753937007874
 20
6.601232283464567
 30
0.0
 10
-3.32753937007874
 20
7.048527559055118
 30
0.0
 10
-3.32753937007874
 20
7.048527559055118
 30
0.0
  0
SPLINE
  5
7A
330
1F
100
AcDbEntity
  8
Layer 1
 62
   250
370
   106
100
AcDbSpline
210
0.0
220
0.0
230
1.0
 70
    24
 71
     3
 72
     8
 73
     4
 74
     0
 42
0.0000000001
 43
0.0000000001
 40
0.0
 40
0.0
 40
0.0
 40
0.0
 40
1.0
 40
1.0
 40
1.0
 40
1.0
 10
-6.334484251968504
 20
7.048527559055118
 30
0.0
 10
-6.334484251968504
 20
7.048527559055118
 30
0.0
 10
-6.334484251968504
 20
6.600417322834645
 30
0.0
 10
-6.334484251968504
 20
6.600417322834645
 30
0.0
  0
SPLINE
  5
7B
330
1F
100
AcDbEntity
  8
Layer 1
 62
   250
370
   106
100
AcDbSpline
210
0.0
220
0.0
230
1.0
 70
    24
 71
     3
 72
     8
 73
     4
 74
     0
 42
0.0000000001
 43
0.0000000001
 40
0.0
 40
0.0
 40
0.0
 40
0.0
 40
1.0
 40
1.0
 40
1.0
 40
1.0
 10
-7.334484251968504
 20
6.600417322834645
 30
0.0
 10
-7.334484251968504
 20
6.600417322834645
 30
0.0
 10
-7.334484251968504
 20
7.048527559055118
 30
0.0
 10
-7.334484251968504
 20
7.048527559055118
 30
0.0
  0
SPLINE
  5
7C
330
1F
100
AcDbEntity
  8
Layer 1
 62
   250
370
     9
100
AcDbSpline
210
0.0
220
0.0
230
1.0
 70
    11
 71
     3
 72
    24
 73
    20
 74
     0
 42
0.0000000001
 43
0.0000000001
 40
0.0
 40
0.0
 40
0.0
 40
0.0
 40
0.1666666666666667
 40
0.1666666666666667
 40
0.1666666666666667
 40
0.1666666666666667
 40
0.3333333333333333
 40
0.3333333333333333
 40
0.3333333333333333
 40
0.3333333333333333
 40
0.5
 40
0.5
 40
0.5
 40
0.5
 40
0.6666666666666666
 40
0.6666666666666666
 40
0.6666666666666666
 40
0.6666666666666666
 40
1.0
 40
1.0
 40
1.0
 40
1.0
 10
-8.608685039370078
 20
7.396814960629921
 30
0.0
 10
-8.608685039370078
 20
7.396814960629921
 30
0.0
 10
-8.608685039370078
 20
7.396814960629921
 30
0.0
 10
-8.608685039370078
 20
7.396814960629921
 30
0.0
 10
-8.608685039370078
 20
7.396814960629921
 30
0.0
 10
-8.608685039370078
 20
7.355405511811024
 30
0.0
 10
-8.57509842519685
 20
7.321803149606299
 30
0.0
 10
-8.533681102362205
 20
7.321803149606299
 30
0.0
 10
-8.533681102362205
 20
7.321803149606299
 30
0.0
 10
-8.492271653543307
 20
7.321803149606299
 30
0.0
 10
-8.458685039370078
 20
7.355405511811024
 30
0.0
 10
-8.458685039370078
 20
7.396814960629921
 30
0.0
 10
-8.458685039370078
 20
7.396814960629921
 30
0.0
 10
-8.458685039370078
 20
7.438224409448819
 30
0.0
 10
-8.492271653543307
 20
7.471822834645669
 30
0.0
 10
-8.533681102362205
 20
7.471822834645669
 30
0.0
 10
-8.533681102362205
 20
7.471822834645669
 30
0.0
 10
-8.57509842519685
 20
7.471822834645669
 30
0.0
 10
-8.608685039370078
 20
7.438224409448819
 30
0.0
 10
-8.608685039370078
 20
7.396814960629921
 30
0.0
  0
SPLINE
  5
7D
330
1F
100
AcDbEntity
  8
Layer 1
 62
   250
370
     9
100
AcDbSpline
210
0.0
220
0.0
230
1.0
 70
    11
 71
     3
 72
    20
 73
    16
 74
     0
 42
0.0000000001
 43
0.0000000001
 40
0.0
 40
0.0
 40
0.0
 40
0.0
 40
0.2
 40
0.2
 40
0.2
 40
0.2
 40
0.4
 40
0.4
 40
0.4
 40
0.4
 40
0.6
 40
0.6
 40
0.6
 40
0.6
 40
1.0
 40
1.0
 40
1.0
 40
1.0
 10
7.505417322834646
 20
7.150866141732283
 30
0.0
 10
7.505417322834646
 20
7.150866141732283
 30
0.0
 10
-8.738350393700788
 20
7.150866141732283
 30
0.0
 10
-8.738350393700788
 20
7.150866141732283
 30
0.0
 10
-8.738350393700788
 20
7.150866141732283
 30
0.0
 10
-8.738350393700788
 20
7.150866141732283
 30
0.0
 10
-8.738350393700788
 20
7.646562992125984
 30
0.0
 10
-8.738350393700788
 20
7.646562992125984
 30
0.0
 10
-8.738350393700788
 20
7.646562992125984
 30
0.0
 10
-8.738350393700788
 20
7.646562992125984
 30
0.0
 10
7.505417322834646
 20
7.646562992125984
 30
0.0
 10
7.505417322834646
 20
7.646562992125984
 30
0.0
 10
7.505417322834646
 20
7.646562992125984
 30
0.0
 10
7.505417322834646
 20
7.646562992125984
 30
0.0
 10
7.505417322834646
 20
7.150866141732283
 30
0.0
 10
7.505417322834646
 20
7.150866141732283
 30
0.0
  0
SPLINE
  5
7E
330
1F
100
AcDbEntity
  8
Layer 1
 62
   250
370
   106
100
AcDbSpline
210
0.0
220
0.0
230
1.0
 70
    24
 71
     3
 72
     8
 73
     4
 74
     0
 42
0.0000000001
 43
0.0000000001
 40
0.0
 40
0.0
 40
0.0
 40
0.0
 40
1.0
 40
1.0
 40
1.0
 40
1.0
 10
-8.254228346456692
 20
7.392696850393701
 30
0.0
 10
-8.254228346456692
 20
7.392696850393701
 30
0.0
 10
7.505417322834646
 20
7.392696850393701
 30
0.0
 10
7.505417322834646
 20
7.392696850393701
 30
0.0
  0
SPLINE
  5
7F
330
1F
100
AcDbEntity
  8
Layer 1
 62
   250
370
   106
100
AcDbSpline
210
0.0
220
0.0
230
1.0
 70
    24
 71
     3
 72
     8
 73
     4
 74
     0
 42
0.0000000001
 43
0.0000000001
 40
0.0
 40
0.0
 40
0.0
 40
0.0
 40
1.0
 40
1.0
 40
1.0
 40
1.0
 10
-3.518968503937008
 20
7.625787401574804
 30
0.0
 10
-3.518968503937008
 20
7.625787401574804
 30
0.0
 10
-3.518968503937008
 20
7.178641732283465
 30
0.0
 10
-3.518968503937008
 20
7.178641732283465
 30
0.0
  0
SPLINE
  5
80
330
1F
100
AcDbEntity
  8
Layer 1
 62
   250
370
   106
100
AcDbSpline
210
0.0
220
0.0
230
1.0
 70
    24
 71
     3
 72
     8
 73
     4
 74
     0
 42
0.0000000001
 43
0.0000000001
 40
0.0
 40
0.0
 40
0.0
 40
0.0
 40
1.0
 40
1.0
 40
1.0
 40
1.0
 10
-4.518968503937008
 20
7.178641732283465
 30
0.0
 10
-4.518968503937008
 20
7.178641732283465
 30
0.0
 10
-4.518968503937008
 20
7.625787401574804
 30
0.0
 10
-4.518968503937008
 20
7.625787401574804
 30
0.0
  0
SPLINE
  5
81
330
1F
100
AcDbEntity
  8
Layer 1
 62
   250
370
   106
100
AcDbSpline
210
0.0
220
0.0
230
1.0
 70
    24
 71
     3
 72
     8
 73
     4
 74
     0
 42
0.0000000001
 43
0.0000000001
 40
0.0
 40
0.0
 40
0.0
 40
0.0
 40
1.0
 40
1.0
 40
1.0
 40
1.0
 10
-7.525913385826771
 20
7.625787401574804
 30
0.0
 10
-7.525913385826771
 20
7.625787401574804
 30
0.0
 10
-7.525913385826771
 20
7.176708661417323
 30
0.0
 10
-7.525913385826771
 20
7.176708661417323
 30
0.0
  0
SPLINE
  5
82
330
1F
100
AcDbEntity
  8
Layer 1
 62
   250
370
   106
100
AcDbSpline
210
0.0
220
0.0
230
1.0
 70
    24
 71
     3
 72
     8
 73
     4
 74
     0
 42
0.0000000001
 43
0.0000000001
 40
0.0
 40
0.0
 40
0.0
 40
0.0
 40
1.0
 40
1.0
 40
1.0
 40
1.0
 10
-8.525913385826772
 20
7.176708661417323
 30
0.0
 10
-8.525913385826772
 20
7.176708661417323
 30
0.0
 10
-8.525913385826772
 20
7.625787401574804
 30
0.0
 10
-8.525913385826772
 20
7.625787401574804
 30
0.0
  0
SPLINE
  5
83
330
1F
100
AcDbEntity
  8
Layer 1
 62
   250
370
   106
100
AcDbSpline
210
0.0
220
0.0
230
1.0
 70
    24
 71
     3
 72
     8
 73
     4
 74
     0
 42
0.0000000001
 43
0.0000000001
 40
0.0
 40
0.0
 40
0.0
 40
0.0
 40
1.0
 40
1.0
 40
1.0
 40
1.0
 10
-5.525913385826771
 20
7.625787401574804
 30
0.0
 10
-5.525913385826771
 20
7.625787401574804
 30
0.0
 10
-5.525913385826771
 20
7.17767716535433
 30
0.0
 10
-5.525913385826771
 20
7.17767716535433
 30
0.0
  0
SPLINE
  5
84
330
1F
100
AcDbEntity
  8
Layer 1
 62
   250
370
   106
100
AcDbSpline
210
0.0
220
0.0
230
1.0
 70
    24
 71
     3
 72
     8
 73
     4
 74
     0
 42
0.0000000001
 43
0.0000000001
 40
0.0
 40
0.0
 40
0.0
 40
0.0
 40
1.0
 40
1.0
 40
1.0
 40
1.0
 10
-6.525913385826771
 20
7.17767716535433
 30
0.0
 10
-6.525913385826771
 20
7.17767716535433
 30
0.0
 10
-6.525913385826771
 20
7.625787401574804
 30
0.0
 10
-6.525913385826771
 20
7.625787401574804
 30
0.0
  0
SPLINE
  5
85
330
1F
100
AcDbEntity
  8
Layer 1
 62
   250
370
   106
100
AcDbSpline
210
0.0
220
0.0
230
1.0
 70
    24
 71
     3
 72
     8
 73
     4
 74
     0
 42
0.0000000001
 43
0.0000000001
 40
0.0
 40
0.0
 40
0.0
 40
0.0
 40
1.0
 40
1.0
 40
1.0
 40
1.0
 10
1.484968503937008
 20
7.626751968503937
 30
0.0
 10
1.484968503937008
 20
7.626751968503937
 30
0.0
 10
1.484968503937008
 20
7.179606299212598
 30
0.0
 10
1.484968503937008
 20
7.179606299212598
 30
0.0
  0
SPLINE
  5
86
330
1F
100
AcDbEntity
  8
Layer 1
 62
   250
370
   106
100
AcDbSpline
210
0.0
220
0.0
230
1.0
 70
    24
 71
     3
 72
     8
 73
     4
 74
     0
 42
0.0000000001
 43
0.0000000001
 40
0.0
 40
0.0
 40
0.0
 40
0.0
 40
1.0
 40
1.0
 40
1.0
 40
1.0
 10
0.4849685039370079
 20
7.179606299212598
 30
0.0
 10
0.4849685039370079
 20
7.179606299212598
 30
0.0
 10
0.4849685039370079
 20
7.626751968503937
 30
0.0
 10
0.4849685039370079
 20
7.626751968503937
 30
0.0
  0
SPLINE
  5
87
330
1F
100
AcDbEntity
  8
Layer 1
 62
   250
370
   106
100
AcDbSpline
210
0.0
220
0.0
230
1.0
 70
    24
 71
     3
 72
     8
 73
     4
 74
     0
 42
0.0000000001
 43
0.0000000001
 40
0.0
 40
0.0
 40
0.0
 40
0.0
 40
1.0
 40
1.0
 40
1.0
 40
1.0
 10
-2.521976377952756
 20
7.626751968503937
 30
0.0
 10
-2.521976377952756
 20
7.626751968503937
 30
0.0
 10
-2.521976377952756
 20
7.177673228346457
 30
0.0
 10
-2.521976377952756
 20
7.177673228346457
 30
0.0
  0
SPLINE
  5
88
330
1F
100
AcDbEntity
  8
Layer 1
 62
   250
370
   106
100
AcDbSpline
210
0.0
220
0.0
230
1.0
 70
    24
 71
     3
 72
     8
 73
     4
 74
     0
 42
0.0000000001
 43
0.0000000001
 40
0.0
 40
0.0
 40
0.0
 40
0.0
 40
1.0
 40
1.0
 40
1.0
 40
1.0
 10
-0.5219763779527559
 20
7.626751968503937
 30
0.0
 10
-0.5219763779527559
 20
7.626751968503937
 30
0.0
 10
-0.5219763779527559
 20
7.178641732283465
 30
0.0
 10
-0.5219763779527559
 20
7.178641732283465
 30
0.0
  0
SPLINE
  5
89
330
1F
100
AcDbEntity
  8
Layer 1
 62
   250
370
   106
100
AcDbSpline
210
0.0
220
0.0
230
1.0
 70
    24
 71
     3
 72
     8
 73
     4
 74
     0
 42
0.0000000001
 43
0.0000000001
 40
0.0
 40
0.0
 40
0.0
 40
0.0
 40
1.0
 40
1.0
 40
1.0
 40
1.0
 10
-1.521976377952756
 20
7.178641732283465
 30
0.0
 10
-1.521976377952756
 20
7.178641732283465
 30
0.0
 10
-1.521976377952756
 20
7.626751968503937
 30
0.0
 10
-1.521976377952756
 20
7.626751968503937
 30
0.0
  0
SPLINE
  5
8A
330
1F
100
AcDbEntity
  8
Layer 1
 62
   250
370
   106
100
AcDbSpline
210
0.0
220
0.0
230
1.0
 70
    24
 71
     3
 72
     8
 73
     4
 74
     0
 42
0.0000000001
 43
0.0000000001
 40
0.0
 40
0.0
 40
0.0
 40
0.0
 40
1.0
 40
1.0
 40
1.0
 40
1.0
 10
6.496232283464566
 20
7.626751968503937
 30
0.0
 10
6.496232283464566
 20
7.626751968503937
 30
0.0
 10
6.496232283464566
 20
7.179606299212598
 30
0.0
 10
6.496232283464566
 20
7.179606299212598
 30
0.0
  0
SPLINE
  5
8B
330
1F
100
AcDbEntity
  8
Layer 1
 62
   250
370
   106
100
AcDbSpline
210
0.0
220
0.0
230
1.0
 70
    24
 71
     3
 72
     8
 73
     4
 74
     0
 42
0.0000000001
 43
0.0000000001
 40
0.0
 40
0.0
 40
0.0
 40
0.0
 40
1.0
 40
1.0
 40
1.0
 40
1.0
 10
5.496232283464566
 20
7.179606299212598
 30
0.0
 10
5.496232283464566
 20
7.179606299212598
 30
0.0
 10
5.496232283464566
 20
7.626751968503937
 30
0.0
 10
5.496232283464566
 20
7.626751968503937
 30
0.0
  0
SPLINE
  5
8C
330
1F
100
AcDbEntity
  8
Layer 1
 62
   250
370
   106
100
AcDbSpline
210
0.0
220
0.0
230
1.0
 70
    24
 71
     3
 72
     8
 73
     4
 74
     0
 42
0.0000000001
 43
0.0000000001
 40
0.0
 40
0.0
 40
0.0
 40
0.0
 40
1.0
 40
1.0
 40
1.0
 40
1.0
 10
2.489287401574803
 20
7.626751968503937
 30
0.0
 10
2.489287401574803
 20
7.626751968503937
 30
0.0
 10
2.489287401574803
 20
7.177673228346457
 30
0.0
 10
2.489287401574803
 20
7.177673228346457
 30
0.0
  0
SPLINE
  5
8D
330
1F
100
AcDbEntity
  8
Layer 1
 62
   250
370
   106
100
AcDbSpline
210
0.0
220
0.0
230
1.0
 70
    24
 71
     3
 72
     8
 73
     4
 74
     0
 42
0.0000000001
 43
0.0000000001
 40
0.0
 40
0.0
 40
0.0
 40
0.0
 40
1.0
 40
1.0
 40
1.0
 40
1.0
 10
4.489287401574803
 20
7.626751968503937
 30
0.0
 10
4.489287401574803
 20
7.626751968503937
 30
0.0
 10
4.489287401574803
 20
7.178641732283465
 30
0.0
 10
4.489287401574803
 20
7.178641732283465
 30
0.0
  0
SPLINE
  5
8E
330
1F
100
AcDbEntity
  8
Layer 1
 62
   250
370
   106
100
AcDbSpline
210
0.0
220
0.0
230
1.0
 70
    24
 71
     3
 72
     8
 73
     4
 74
     0
 42
0.0000000001
 43
0.0000000001
 40
0.0
 40
0.0
 40
0.0
 40
0.0
 40
1.0
 40
1.0
 40
1.0
 40
1.0
 10
3.489287401574803
 20
7.178641732283465
 30
0.0
 10
3.489287401574803
 20
7.178641732283465
 30
0.0
 10
3.489287401574803
 20
7.626751968503937
 30
0.0
 10
3.489287401574803
 20
7.626751968503937
 30
0.0
  0
SPLINE
  5
8F
330
1F
100
AcDbEntity
  8
Layer 1
 62
   250
370
     9
100
AcDbSpline
210
0.0
220
0.0
230
1.0
 70
    11
 71
     3
 72
    24
 73
    20
 74
     0
 42
0.0000000001
 43
0.0000000001
 40
0.0
 40
0.0
 40
0.0
 40
0.0
 40
0.1666666666666667
 40
0.1666666666666667
 40
0.1666666666666667
 40
0.1666666666666667
 40
0.3333333333333333
 40
0.3333333333333333
 40
0.3333333333333333
 40
0.3333333333333333
 40
0.5
 40
0.5
 40
0.5
 40
0.5
 40
0.6666666666666666
 40
0.6666666666666666
 40
0.6666666666666666
 40
0.6666666666666666
 40
1.0
 40
1.0
 40
1.0
 40
1.0
 10
-0.4064291338582677
 20
6.89998031496063
 30
0.0
 10
-0.4064291338582677
 20
6.89998031496063
 30
0.0
 10
-0.4064291338582677
 20
6.89998031496063
 30
0.0
 10
-0.4064291338582677
 20
6.89998031496063
 30
0.0
 10
-0.4064291338582677
 20
6.89998031496063
 30
0.0
 10
-0.4064291338582677
 20
6.858562992125984
 30
0.0
 10
-0.3728425196850394
 20
6.824972440944882
 30
0.0
 10
-0.3314370078740158
 20
6.824972440944882
 30
0.0
 10
-0.3314370078740158
 20
6.824972440944882
 30
0.0
 10
-0.2900314960629921
 20
6.824972440944882
 30
0.0
 10
-0.2564291338582677
 20
6.858562992125984
 30
0.0
 10
-0.2564291338582677
 20
6.89998031496063
 30
0.0
 10
-0.2564291338582677
 20
6.89998031496063
 30
0.0
 10
-0.2564291338582677
 20
6.941393700787401
 30
0.0
 10
-0.2900314960629921
 20
6.974976377952756
 30
0.0
 10
-0.3314370078740158
 20
6.974976377952756
 30
0.0
 10
-0.3314370078740158
 20
6.974976377952756
 30
0.0
 10
-0.3728425196850394
 20
6.974976377952756
 30
0.0
 10
-0.4064291338582677
 20
6.941393700787401
 30
0.0
 10
-0.4064291338582677
 20
6.89998031496063
 30
0.0
  0
SPLINE
  5
90
330
1F
100
AcDbEntity
  8
Layer 1
 62
   250
370
   106
100
AcDbSpline
210
0.0
220
0.0
230
1.0
 70
    24
 71
     3
 72
     8
 73
     4
 74
     0
 42
0.0000000001
 43
0.0000000001
 40
0.0
 40
0.0
 40
0.0
 40
0.0
 40
1.0
 40
1.0
 40
1.0
 40
1.0
 10
-0.331744094488189
 20
7.052165354330708
 30
0.0
 10
-0.331744094488189
 20
7.052165354330708
 30
0.0
 10
-0.331744094488189
 20
6.604870078740158
 30
0.0
 10
-0.331744094488189
 20
6.604870078740158
 30
0.0
  0
SPLINE
  5
91
330
1F
100
AcDbEntity
  8
Layer 1
 62
   250
370
   106
100
AcDbSpline
210
0.0
220
0.0
230
1.0
 70
    24
 71
     3
 72
     8
 73
     4
 74
     0
 42
0.0000000001
 43
0.0000000001
 40
0.0
 40
0.0
 40
0.0
 40
0.0
 40
1.0
 40
1.0
 40
1.0
 40
1.0
 10
-1.331744094488189
 20
6.604870078740158
 30
0.0
 10
-1.331744094488189
 20
6.604870078740158
 30
0.0
 10
-1.331744094488189
 20
7.052165354330708
 30
0.0
 10
-1.331744094488189
 20
7.052165354330708
 30
0.0
  0
ELLIPSE
  5
92
330
1F
100
AcDbEntity
  8
Layer 1
 62
   250
370
     9
100
AcDbEllipse
 10
10.88635433070866
 20
7.891874015748032
 30
0.0
 11
0.0
 21
0.5
 31
0.0
210
0.0
220
0.0
230
1.0
 40
1.0
 41
0.0
 42
6.283185307179586
  0
SPLINE
  5
93
330
1F
100
AcDbEntity
  8
Layer 1
 62
   250
370
     9
100
AcDbSpline
210
0.0
220
0.0
230
1.0
 70
    11
 71
     3
 72
    52
 73
    48
 74
     0
 42
0.0000000001
 43
0.0000000001
 40
0.0
 40
0.0
 40
0.0
 40
0.0
 40
0.0769230769230769
 40
0.0769230769230769
 40
0.0769230769230769
 40
0.0769230769230769
 40
0.1538461538461539
 40
0.1538461538461539
 40
0.1538461538461539
 40
0.1538461538461539
 40
0.2307692307692308
 40
0.2307692307692308
 40
0.2307692307692308
 40
0.2307692307692308
 40
0.3076923076923077
 40
0.3076923076923077
 40
0.3076923076923077
 40
0.3076923076923077
 40
0.3846153846153846
 40
0.3846153846153846
 40
0.3846153846153846
 40
0.3846153846153846
 40
0.4615384615384616
 40
0.4615384615384616
 40
0.4615384615384616
 40
0.4615384615384616
 40
0.5384615384615384
 40
0.5384615384615384
 40
0.5384615384615384
 40
0.5384615384615384
 40
0.6153846153846154
 40
0.6153846153846154
 40
0.6153846153846154
 40
0.6153846153846154
 40
0.6923076923076923
 40
0.6923076923076923
 40
0.6923076923076923
 40
0.6923076923076923
 40
0.7692307692307693
 40
0.7692307692307693
 40
0.7692307692307693
 40
0.7692307692307693
 40
0.8461538461538461
 40
0.8461538461538461
 40
0.8461538461538461
 40
0.8461538461538461
 40
1.0
 40
1.0
 40
1.0
 40
1.0
 10
10.80216141732283
 20
8.0376968503937
 30
0.0
 10
10.80216141732283
 20
8.0376968503937
 30
0.0
 10
10.88720866141732
 20
8.038192913385826
 30
0.0
 10
10.88720866141732
 20
8.038192913385826
 30
0.0
 10
10.88720866141732
 20
8.038192913385826
 30
0.0
 10
10.88720866141732
 20
8.038192913385826
 30
0.0
 10
10.97225196850394
 20
8.038685039370078
 30
0.0
 10
10.97225196850394
 20
8.038685039370078
 30
0.0
 10
10.97225196850394
 20
8.038685039370078
 30
0.0
 10
10.97225196850394
 20
8.038685039370078
 30
0.0
 10
11.01434645669291
 20
7.965771653543307
 30
0.0
 10
11.01434645669291
 20
7.965771653543307
 30
0.0
 10
11.01434645669291
 20
7.965771653543307
 30
0.0
 10
11.01434645669291
 20
7.965771653543307
 30
0.0
 10
11.05644094488189
 20
7.892862204724409
 30
0.0
 10
11.05644094488189
 20
7.892862204724409
 30
0.0
 10
11.05644094488189
 20
7.892862204724409
 30
0.0
 10
11.05644094488189
 20
7.892862204724409
 30
0.0
 10
11.01349212598425
 20
7.819456692913386
 30
0.0
 10
11.01349212598425
 20
7.819456692913386
 30
0.0
 10
11.01349212598425
 20
7.819456692913386
 30
0.0
 10
11.01349212598425
 20
7.819456692913386
 30
0.0
 10
10.97054330708661
 20
7.746051181102362
 30
0.0
 10
10.97054330708661
 20
7.746051181102362
 30
0.0
 10
10.97054330708661
 20
7.746051181102362
 30
0.0
 10
10.97054330708661
 20
7.746051181102362
 30
0.0
 10
10.8855
 20
7.74555905511811
 30
0.0
 10
10.8855
 20
7.74555905511811
 30
0.0
 10
10.8855
 20
7.74555905511811
 30
0.0
 10
10.8855
 20
7.74555905511811
 30
0.0
 10
10.80045669291339
 20
7.745066929133858
 30
0.0
 10
10.80045669291339
 20
7.745066929133858
 30
0.0
 10
10.80045669291339
 20
7.745066929133858
 30
0.0
 10
10.80045669291339
 20
7.745066929133858
 30
0.0
 10
10.75836220472441
 20
7.81798031496063
 30
0.0
 10
10.75836220472441
 20
7.81798031496063
 30
0.0
 10
10.75836220472441
 20
7.81798031496063
 30
0.0
 10
10.75836220472441
 20
7.81798031496063
 30
0.0
 10
10.71626771653543
 20
7.890889763779527
 30
0.0
 10
10.71626771653543
 20
7.890889763779527
 30
0.0
 10
10.71626771653543
 20
7.890889763779527
 30
0.0
 10
10.71626771653543
 20
7.890889763779527
 30
0.0
 10
10.7592125984252
 20
7.964295275590551
 30
0.0
 10
10.7592125984252
 20
7.964295275590551
 30
0.0
 10
10.7592125984252
 20
7.964295275590551
 30
0.0
 10
10.7592125984252
 20
7.964295275590551
 30
0.0
 10
10.80216141732283
 20
8.0376968503937
 30
0.0
 10
10.80216141732283
 20
8.0376968503937
 30
0.0
  0
ELLIPSE
  5
94
330
1F
100
AcDbEntity
  8
Layer 1
 62
   250
370
     9
100
AcDbEllipse
 10
9.340413385826771
 20
7.995047244094488
 30
0.0
 11
0.0
 21
0.5
 31
0.0
210
0.0
220
0.0
230
1.0
 40
1.0
 41
0.0
 42
6.283185307179586
  0
SPLINE
  5
95
330
1F
100
AcDbEntity
  8
Layer 1
 62
   250
370
     9
100
AcDbSpline
210
0.0
220
0.0
230
1.0
 70
    11
 71
     3
 72
    52
 73
    48
 74
     0
 42
0.0000000001
 43
0.0000000001
 40
0.0
 40
0.0
 40
0.0
 40
0.0
 40
0.0769230769230769
 40
0.0769230769230769
 40
0.0769230769230769
 40
0.0769230769230769
 40
0.1538461538461539
 40
0.1538461538461539
 40
0.1538461538461539
 40
0.1538461538461539
 40
0.2307692307692308
 40
0.2307692307692308
 40
0.2307692307692308
 40
0.2307692307692308
 40
0.3076923076923077
 40
0.3076923076923077
 40
0.3076923076923077
 40
0.3076923076923077
 40
0.3846153846153846
 40
0.3846153846153846
 40
0.3846153846153846
 40
0.3846153846153846
 40
0.4615384615384616
 40
0.4615384615384616
 40
0.4615384615384616
 40
0.4615384615384616
 40
0.5384615384615384
 40
0.5384615384615384
 40
0.5384615384615384
 40
0.5384615384615384
 40
0.6153846153846154
 40
0.6153846153846154
 40
0.6153846153846154
 40
0.6153846153846154
 40
0.6923076923076923
 40
0.6923076923076923
 40
0.6923076923076923
 40
0.6923076923076923
 40
0.7692307692307693
 40
0.7692307692307693
 40
0.7692307692307693
 40
0.7692307692307693
 40
0.8461538461538461
 40
0.8461538461538461
 40
0.8461538461538461
 40
0.8461538461538461
 40
1.0
 40
1.0
 40
1.0
 40
1.0
 10
9.256220472440944
 20
8.140870078740157
 30
0.0
 10
9.256220472440944
 20
8.140870078740157
 30
0.0
 10
9.341267716535434
 20
8.141366141732284
 30
0.0
 10
9.341267716535434
 20
8.141366141732284
 30
0.0
 10
9.341267716535434
 20
8.141366141732284
 30
0.0
 10
9.341267716535434
 20
8.141366141732284
 30
0.0
 10
9.426311023622047
 20
8.141858267716536
 30
0.0
 10
9.426311023622047
 20
8.141858267716536
 30
0.0
 10
9.426311023622047
 20
8.141858267716536
 30
0.0
 10
9.426311023622047
 20
8.141858267716536
 30
0.0
 10
9.468405511811024
 20
8.068944881889763
 30
0.0
 10
9.468405511811024
 20
8.068944881889763
 30
0.0
 10
9.468405511811024
 20
8.068944881889763
 30
0.0
 10
9.468405511811024
 20
8.068944881889763
 30
0.0
 10
9.5105
 20
7.996035433070866
 30
0.0
 10
9.5105
 20
7.996035433070866
 30
0.0
 10
9.5105
 20
7.996035433070866
 30
0.0
 10
9.5105
 20
7.996035433070866
 30
0.0
 10
9.467551181102362
 20
7.922629921259842
 30
0.0
 10
9.467551181102362
 20
7.922629921259842
 30
0.0
 10
9.467551181102362
 20
7.922629921259842
 30
0.0
 10
9.467551181102362
 20
7.922629921259842
 30
0.0
 10
9.424602362204725
 20
7.849224409448819
 30
0.0
 10
9.424602362204725
 20
7.849224409448819
 30
0.0
 10
9.424602362204725
 20
7.849224409448819
 30
0.0
 10
9.424602362204725
 20
7.849224409448819
 30
0.0
 10
9.33955905511811
 20
7.848732283464567
 30
0.0
 10
9.33955905511811
 20
7.848732283464567
 30
0.0
 10
9.33955905511811
 20
7.848732283464567
 30
0.0
 10
9.33955905511811
 20
7.848732283464567
 30
0.0
 10
9.254515748031496
 20
7.848240157480315
 30
0.0
 10
9.254515748031496
 20
7.848240157480315
 30
0.0
 10
9.254515748031496
 20
7.848240157480315
 30
0.0
 10
9.254515748031496
 20
7.848240157480315
 30
0.0
 10
9.21242125984252
 20
7.921153543307087
 30
0.0
 10
9.21242125984252
 20
7.921153543307087
 30
0.0
 10
9.21242125984252
 20
7.921153543307087
 30
0.0
 10
9.21242125984252
 20
7.921153543307087
 30
0.0
 10
9.170326771653544
 20
7.994062992125984
 30
0.0
 10
9.170326771653544
 20
7.994062992125984
 30
0.0
 10
9.170326771653544
 20
7.994062992125984
 30
0.0
 10
9.170326771653544
 20
7.994062992125984
 30
0.0
 10
9.213271653543307
 20
8.067468503937008
 30
0.0
 10
9.213271653543307
 20
8.067468503937008
 30
0.0
 10
9.213271653543307
 20
8.067468503937008
 30
0.0
 10
9.213271653543307
 20
8.067468503937008
 30
0.0
 10
9.256220472440944
 20
8.140870078740157
 30
0.0
 10
9.256220472440944
 20
8.140870078740157
 30
0.0
  0
TEXT
  5
B9
330
1F
100
AcDbEntity
  8
Layer 1
 62
   250
100
AcDbText
 10
-9.2925
 20
6.651385826771654
 30
0.0
 40
0.18
  1
1
 51
-0.0000015352345087
  7
0
100
AcDbText
  0
TEXT
  5
BB
330
1F
100
AcDbEntity
  8
Layer 1
 62
   250
100
AcDbText
 10
-8.256043307086614
 20
6.651385826771654
 30
0.0
 40
0.18
  1
2
 51
-0.0000015352345087
  7
1
100
AcDbText
  0
TEXT
  5
BD
330
1F
100
AcDbEntity
  8
Layer 1
 62
   250
100
AcDbText
 10
-7.277622047244095
 20
6.651385826771654
 30
0.0
 40
0.18
  1
3
 51
-0.0000015352345087
  7
2
100
AcDbText
  0
TEXT
  5
BF
330
1F
100
AcDbEntity
  8
Layer 1
 62
   250
100
AcDbText
 10
-6.268102362204725
 20
6.652137795275591
 30
0.0
 40
0.18
  1
4
 51
-0.0000015352345087
  7
3
100
AcDbText
  0
TEXT
  5
C1
330
1F
100
AcDbEntity
  8
Layer 1
 62
   250
100
AcDbText
 10
-5.267748031496064
 20
6.654594488188977
 30
0.0
 40
0.18
  1
5
 51
-0.0000015352345087
  7
4
100
AcDbText
  0
TEXT
  5
C3
330
1F
100
AcDbEntity
  8
Layer 1
 62
   250
100
AcDbText
 10
-4.278161417322835
 20
6.651385826771654
 30
0.0
 40
0.18
  1
6
 51
-0.0000015352345087
  7
5
100
AcDbText
  0
TEXT
  5
C5
330
1F
100
AcDbEntity
  8
Layer 1
 62
   250
100
AcDbText
 10
-3.268059055118111
 20
6.654468503937008
 30
0.0
 40
0.18
  1
7
 51
-0.0000015352345087
  7
6
100
AcDbText
  0
TEXT
  5
C7
330
1F
100
AcDbEntity
  8
Layer 1
 62
   250
100
AcDbText
 10
-2.268102362204724
 20
6.651385826771654
 30
0.0
 40
0.18
  1
8
 51
-0.0000015352345087
  7
7
100
AcDbText
  0
TEXT
  5
C9
330
1F
100
AcDbEntity
  8
Layer 1
 62
   250
100
AcDbText
 10
-1.27851968503937
 20
6.651385826771654
 30
0.0
 40
0.18
  1
9
 51
-0.0000015352345087
  7
8
100
AcDbText
  0
TEXT
  5
CB
330
1F
100
AcDbEntity
  8
Layer 1
 62
   250
100
AcDbText
 10
-7.463456692913386
 20
7.422629921259843
 30
0.0
 40
0.18
  1
1
 51
-0.0000015352345087
  7
9
100
AcDbText
  0
TEXT
  5
CD
330
1F
100
AcDbEntity
  8
Layer 1
 62
   250
100
AcDbText
 10
-6.427
 20
7.422629921259843
 30
0.0
 40
0.18
  1
2
 51
-0.0000015352345087
  7
10
100
AcDbText
  0
TEXT
  5
CF
330
1F
100
AcDbEntity
  8
Layer 1
 62
   250
100
AcDbText
 10
-5.448578740157481
 20
7.422629921259843
 30
0.0
 40
0.18
  1
3
 51
-0.0000015352345087
  7
11
100
AcDbText
  0
TEXT
  5
D1
330
1F
100
AcDbEntity
  8
Layer 1
 62
   250
100
AcDbText
 10
-4.43905905511811
 20
7.42338188976378
 30
0.0
 40
0.18
  1
4
 51
-0.0000015352345087
  7
12
100
AcDbText
  0
TEXT
  5
D3
330
1F
100
AcDbEntity
  8
Layer 1
 62
   250
100
AcDbText
 10
-3.438704724409449
 20
7.425838582677166
 30
0.0
 40
0.18
  1
5
 51
-0.0000015352345087
  7
13
100
AcDbText
  0
TEXT
  5
D5
330
1F
100
AcDbEntity
  8
Layer 1
 62
   250
100
AcDbText
 10
-2.449118110236221
 20
7.422629921259843
 30
0.0
 40
0.18
  1
6
 51
-0.0000015352345087
  7
14
100
AcDbText
  0
TEXT
  5
D7
330
1F
100
AcDbEntity
  8
Layer 1
 62
   250
100
AcDbText
 10
-1.439015748031496
 20
7.425712598425197
 30
0.0
 40
0.18
  1
7
 51
-0.0000015352345087
  7
15
100
AcDbText
  0
TEXT
  5
D9
330
1F
100
AcDbEntity
  8
Layer 1
 62
   250
100
AcDbText
 10
-0.4390590551181103
 20
7.422629921259843
 30
0.0
 40
0.18
  1
8
 51
-0.0000015352345087
  7
16
100
AcDbText
  0
TEXT
  5
DB
330
1F
100
AcDbEntity
  8
Layer 1
 62
   250
100
AcDbText
 10
0.5505236220472441
 20
7.422629921259843
 30
0.0
 40
0.18
  1
9
 51
-0.0000015352345087
  7
17
100
AcDbText
  0
TEXT
  5
DD
330
1F
100
AcDbEntity
  8
Layer 1
 62
   250
100
AcDbText
 10
1.61192125984252
 20
7.422629921259843
 30
0.0
 40
0.18
  1
10
 51
-0.0000015352345087
  7
18
100
AcDbText
  0
TEXT
  5
DF
330
1F
100
AcDbEntity
  8
Layer 1
 62
   250
100
AcDbText
 10
2.563712598425197
 20
7.422629921259843
 30
0.0
 40
0.18
  1
11
 51
-0.0000015352345087
  7
19
100
AcDbText
  0
TEXT
  5
E1
330
1F
100
AcDbEntity
  8
Layer 1
 62
   250
100
AcDbText
 10
3.589964566929134
 20
7.422629921259843
 30
0.0
 40
0.18
  1
12
 51
-0.0000015352345087
  7
20
100
AcDbText
  0
TEXT
  5
E3
330
1F
100
AcDbEntity
  8
Layer 1
 62
   250
100
AcDbText
 10
4.564318897637795
 20
7.422629921259843
 30
0.0
 40
0.18
  1
13
 51
-0.0000015352345087
  7
21
100
AcDbText
  0
TEXT
  5
E5
330
1F
100
AcDbEntity
  8
Layer 1
 62
   250
100
AcDbText
 10
5.56342125984252
 20
7.422629921259843
 30
0.0
 40
0.18
  1
14
 51
-0.0000015352345087
  7
22
100
AcDbText
  0
TEXT
  5
E7
330
1F
100
AcDbEntity
  8
Layer 1
 62
   250
100
AcDbText
 10
6.564984251968504
 20
7.422629921259843
 30
0.0
 40
0.18
  1
15
 51
-0.0000015352345087
  7
23
100
AcDbText
  0
SPLINE
  5
E8
330
1F
100
AcDbEntity
  8
Layer 1
 62
   250
370
     9
100
AcDbSpline
210
0.0
220
0.0
230
1.0
 70
    11
 71
     3
 72
    24
 73
    20
 74
     0
 42
0.0000000001
 43
0.0000000001
 40
0.0
 40
0.0
 40
0.0
 40
0.0
 40
0.1666666666666667
 40
0.1666666666666667
 40
0.1666666666666667
 40
0.1666666666666667
 40
0.3333333333333333
 40
0.3333333333333333
 40
0.3333333333333333
 40
0.3333333333333333
 40
0.5
 40
0.5
 40
0.5
 40
0.5
 40
0.6666666666666666
 40
0.6666666666666666
 40
0.6666666666666666
 40
0.6666666666666666
 40
1.0
 40
1.0
 40
1.0
 40
1.0
 10
-8.65035433070866
 20
8.122937007874016
 30
0.0
 10
-8.65035433070866
 20
8.122937007874016
 30
0.0
 10
-8.65035433070866
 20
8.122937007874016
 30
0.0
 10
-8.65035433070866
 20
8.122937007874016
 30
0.0
 10
-8.65035433070866
 20
8.122937007874016
 30
0.0
 10
-8.65035433070866
 20
8.081527559055118
 30
0.0
 10
-8.616767716535433
 20
8.047925196850393
 30
0.0
 10
-8.575350393700788
 20
8.047925196850393
 30
0.0
 10
-8.575350393700788
 20
8.047925196850393
 30
0.0
 10
-8.53394094488189
 20
8.047925196850393
 30
0.0
 10
-8.500354330708662
 20
8.081527559055118
 30
0.0
 10
-8.500354330708662
 20
8.122937007874016
 30
0.0
 10
-8.500354330708662
 20
8.122937007874016
 30
0.0
 10
-8.500354330708662
 20
8.164346456692913
 30
0.0
 10
-8.53394094488189
 20
8.197944881889764
 30
0.0
 10
-8.575350393700788
 20
8.197944881889764
 30
0.0
 10
-8.575350393700788
 20
8.197944881889764
 30
0.0
 10
-8.616767716535433
 20
8.197944881889764
 30
0.0
 10
-8.65035433070866
 20
8.164346456692913
 30
0.0
 10
-8.65035433070866
 20
8.122937007874016
 30
0.0
  0
SPLINE
  5
E9
330
1F
100
AcDbEntity
  8
Layer 1
 62
   250
370
     9
100
AcDbSpline
210
0.0
220
0.0
230
1.0
 70
    11
 71
     3
 72
    20
 73
    16
 74
     0
 42
0.0000000001
 43
0.0000000001
 40
0.0
 40
0.0
 40
0.0
 40
0.0
 40
0.2
 40
0.2
 40
0.2
 40
0.2
 40
0.4
 40
0.4
 40
0.4
 40
0.4
 40
0.6
 40
0.6
 40
0.6
 40
0.6
 40
1.0
 40
1.0
 40
1.0
 40
1.0
 10
7.463748031496063
 20
7.876988188976378
 30
0.0
 10
7.463748031496063
 20
7.876988188976378
 30
0.0
 10
-8.78001968503937
 20
7.876988188976378
 30
0.0
 10
-8.78001968503937
 20
7.876988188976378
 30
0.0
 10
-8.78001968503937
 20
7.876988188976378
 30
0.0
 10
-8.78001968503937
 20
7.876988188976378
 30
0.0
 10
-8.78001968503937
 20
8.37268503937008
 30
0.0
 10
-8.78001968503937
 20
8.37268503937008
 30
0.0
 10
-8.78001968503937
 20
8.37268503937008
 30
0.0
 10
-8.78001968503937
 20
8.37268503937008
 30
0.0
 10
7.463748031496063
 20
8.37268503937008
 30
0.0
 10
7.463748031496063
 20
8.37268503937008
 30
0.0
 10
7.463748031496063
 20
8.37268503937008
 30
0.0
 10
7.463748031496063
 20
8.37268503937008
 30
0.0
 10
7.463748031496063
 20
7.876988188976378
 30
0.0
 10
7.463748031496063
 20
7.876988188976378
 30
0.0
  0
SPLINE
  5
EA
330
1F
100
AcDbEntity
  8
Layer 1
 62
   250
370
   106
100
AcDbSpline
210
0.0
220
0.0
230
1.0
 70
    24
 71
     3
 72
     8
 73
     4
 74
     0
 42
0.0000000001
 43
0.0000000001
 40
0.0
 40
0.0
 40
0.0
 40
0.0
 40
1.0
 40
1.0
 40
1.0
 40
1.0
 10
-8.295897637795276
 20
8.118818897637794
 30
0.0
 10
-8.295897637795276
 20
8.118818897637794
 30
0.0
 10
7.463748031496063
 20
8.118818897637794
 30
0.0
 10
7.463748031496063
 20
8.118818897637794
 30
0.0
  0
SPLINE
  5
EB
330
1F
100
AcDbEntity
  8
Layer 1
 62
   250
370
   106
100
AcDbSpline
210
0.0
220
0.0
230
1.0
 70
    24
 71
     3
 72
     8
 73
     4
 74
     0
 42
0.0000000001
 43
0.0000000001
 40
0.0
 40
0.0
 40
0.0
 40
0.0
 40
1.0
 40
1.0
 40
1.0
 40
1.0
 10
-3.560637795275591
 20
8.351909448818898
 30
0.0
 10
-3.560637795275591
 20
8.351909448818898
 30
0.0
 10
-3.560637795275591
 20
7.904763779527559
 30
0.0
 10
-3.560637795275591
 20
7.904763779527559
 30
0.0
  0
SPLINE
  5
EC
330
1F
100
AcDbEntity
  8
Layer 1
 62
   250
370
   106
100
AcDbSpline
210
0.0
220
0.0
230
1.0
 70
    24
 71
     3
 72
     8
 73
     4
 74
     0
 42
0.0000000001
 43
0.0000000001
 40
0.0
 40
0.0
 40
0.0
 40
0.0
 40
1.0
 40
1.0
 40
1.0
 40
1.0
 10
-4.560637795275591
 20
7.904763779527559
 30
0.0
 10
-4.560637795275591
 20
7.904763779527559
 30
0.0
 10
-4.560637795275591
 20
8.351909448818898
 30
0.0
 10
-4.560637795275591
 20
8.351909448818898
 30
0.0
  0
SPLINE
  5
ED
330
1F
100
AcDbEntity
  8
Layer 1
 62
   250
370
   106
100
AcDbSpline
210
0.0
220
0.0
230
1.0
 70
    24
 71
     3
 72
     8
 73
     4
 74
     0
 42
0.0000000001
 43
0.0000000001
 40
0.0
 40
0.0
 40
0.0
 40
0.0
 40
1.0
 40
1.0
 40
1.0
 40
1.0
 10
-7.567582677165355
 20
8.351909448818898
 30
0.0
 10
-7.567582677165355
 20
8.351909448818898
 30
0.0
 10
-7.567582677165355
 20
7.902830708661417
 30
0.0
 10
-7.567582677165355
 20
7.902830708661417
 30
0.0
  0
SPLINE
  5
EE
330
1F
100
AcDbEntity
  8
Layer 1
 62
   250
370
   106
100
AcDbSpline
210
0.0
220
0.0
230
1.0
 70
    24
 71
     3
 72
     8
 73
     4
 74
     0
 42
0.0000000001
 43
0.0000000001
 40
0.0
 40
0.0
 40
0.0
 40
0.0
 40
1.0
 40
1.0
 40
1.0
 40
1.0
 10
-8.567582677165355
 20
7.902830708661417
 30
0.0
 10
-8.567582677165355
 20
7.902830708661417
 30
0.0
 10
-8.567582677165355
 20
8.351909448818898
 30
0.0
 10
-8.567582677165355
 20
8.351909448818898
 30
0.0
  0
SPLINE
  5
EF
330
1F
100
AcDbEntity
  8
Layer 1
 62
   250
370
   106
100
AcDbSpline
210
0.0
220
0.0
230
1.0
 70
    24
 71
     3
 72
     8
 73
     4
 74
     0
 42
0.0000000001
 43
0.0000000001
 40
0.0
 40
0.0
 40
0.0
 40
0.0
 40
1.0
 40
1.0
 40
1.0
 40
1.0
 10
-5.567582677165355
 20
8.351909448818898
 30
0.0
 10
-5.567582677165355
 20
8.351909448818898
 30
0.0
 10
-5.567582677165355
 20
7.903799212598425
 30
0.0
 10
-5.567582677165355
 20
7.903799212598425
 30
0.0
  0
SPLINE
  5
F0
330
1F
100
AcDbEntity
  8
Layer 1
 62
   250
370
   106
100
AcDbSpline
210
0.0
220
0.0
230
1.0
 70
    24
 71
     3
 72
     8
 73
     4
 74
     0
 42
0.0000000001
 43
0.0000000001
 40
0.0
 40
0.0
 40
0.0
 40
0.0
 40
1.0
 40
1.0
 40
1.0
 40
1.0
 10
-6.567582677165355
 20
7.903799212598425
 30
0.0
 10
-6.567582677165355
 20
7.903799212598425
 30
0.0
 10
-6.567582677165355
 20
8.351909448818898
 30
0.0
 10
-6.567582677165355
 20
8.351909448818898
 30
0.0
  0
SPLINE
  5
F1
330
1F
100
AcDbEntity
  8
Layer 1
 62
   250
370
   106
100
AcDbSpline
210
0.0
220
0.0
230
1.0
 70
    24
 71
     3
 72
     8
 73
     4
 74
     0
 42
0.0000000001
 43
0.0000000001
 40
0.0
 40
0.0
 40
0.0
 40
0.0
 40
1.0
 40
1.0
 40
1.0
 40
1.0
 10
1.443299212598425
 20
8.352874015748032
 30
0.0
 10
1.443299212598425
 20
8.352874015748032
 30
0.0
 10
1.443299212598425
 20
7.905728346456693
 30
0.0
 10
1.443299212598425
 20
7.905728346456693
 30
0.0
  0
SPLINE
  5
F2
330
1F
100
AcDbEntity
  8
Layer 1
 62
   250
370
   106
100
AcDbSpline
210
0.0
220
0.0
230
1.0
 70
    24
 71
     3
 72
     8
 73
     4
 74
     0
 42
0.0000000001
 43
0.0000000001
 40
0.0
 40
0.0
 40
0.0
 40
0.0
 40
1.0
 40
1.0
 40
1.0
 40
1.0
 10
0.4432992125984252
 20
7.905728346456693
 30
0.0
 10
0.4432992125984252
 20
7.905728346456693
 30
0.0
 10
0.4432992125984252
 20
8.352874015748032
 30
0.0
 10
0.4432992125984252
 20
8.352874015748032
 30
0.0
  0
SPLINE
  5
F3
330
1F
100
AcDbEntity
  8
Layer 1
 62
   250
370
   106
100
AcDbSpline
210
0.0
220
0.0
230
1.0
 70
    24
 71
     3
 72
     8
 73
     4
 74
     0
 42
0.0000000001
 43
0.0000000001
 40
0.0
 40
0.0
 40
0.0
 40
0.0
 40
1.0
 40
1.0
 40
1.0
 40
1.0
 10
-2.563645669291339
 20
8.352874015748032
 30
0.0
 10
-2.563645669291339
 20
8.352874015748032
 30
0.0
 10
-2.563645669291339
 20
7.903795275590551
 30
0.0
 10
-2.563645669291339
 20
7.903795275590551
 30
0.0
  0
SPLINE
  5
F4
330
1F
100
AcDbEntity
  8
Layer 1
 62
   250
370
   106
100
AcDbSpline
210
0.0
220
0.0
230
1.0
 70
    24
 71
     3
 72
     8
 73
     4
 74
     0
 42
0.0000000001
 43
0.0000000001
 40
0.0
 40
0.0
 40
0.0
 40
0.0
 40
1.0
 40
1.0
 40
1.0
 40
1.0
 10
-0.5636456692913386
 20
8.352874015748032
 30
0.0
 10
-0.5636456692913386
 20
8.352874015748032
 30
0.0
 10
-0.5636456692913386
 20
7.904763779527559
 30
0.0
 10
-0.5636456692913386
 20
7.904763779527559
 30
0.0
  0
SPLINE
  5
F5
330
1F
100
AcDbEntity
  8
Layer 1
 62
   250
370
   106
100
AcDbSpline
210
0.0
220
0.0
230
1.0
 70
    24
 71
     3
 72
     8
 73
     4
 74
     0
 42
0.0000000001
 43
0.0000000001
 40
0.0
 40
0.0
 40
0.0
 40
0.0
 40
1.0
 40
1.0
 40
1.0
 40
1.0
 10
-1.563645669291339
 20
7.904763779527559
 30
0.0
 10
-1.563645669291339
 20
7.904763779527559
 30
0.0
 10
-1.563645669291339
 20
8.352874015748032
 30
0.0
 10
-1.563645669291339
 20
8.352874015748032
 30
0.0
  0
SPLINE
  5
F6
330
1F
100
AcDbEntity
  8
Layer 1
 62
   250
370
   106
100
AcDbSpline
210
0.0
220
0.0
230
1.0
 70
    24
 71
     3
 72
     8
 73
     4
 74
     0
 42
0.0000000001
 43
0.0000000001
 40
0.0
 40
0.0
 40
0.0
 40
0.0
 40
1.0
 40
1.0
 40
1.0
 40
1.0
 10
6.454562992125984
 20
8.352874015748032
 30
0.0
 10
6.454562992125984
 20
8.352874015748032
 30
0.0
 10
6.454562992125984
 20
7.905728346456693
 30
0.0
 10
6.454562992125984
 20
7.905728346456693
 30
0.0
  0
SPLINE
  5
F7
330
1F
100
AcDbEntity
  8
Layer 1
 62
   250
370
   106
100
AcDbSpline
210
0.0
220
0.0
230
1.0
 70
    24
 71
     3
 72
     8
 73
     4
 74
     0
 42
0.0000000001
 43
0.0000000001
 40
0.0
 40
0.0
 40
0.0
 40
0.0
 40
1.0
 40
1.0
 40
1.0
 40
1.0
 10
5.454562992125984
 20
7.905728346456693
 30
0.0
 10
5.454562992125984
 20
7.905728346456693
 30
0.0
 10
5.454562992125984
 20
8.352874015748032
 30
0.0
 10
5.454562992125984
 20
8.352874015748032
 30
0.0
  0
SPLINE
  5
F8
330
1F
100
AcDbEntity
  8
Layer 1
 62
   250
370
   106
100
AcDbSpline
210
0.0
220
0.0
230
1.0
 70
    24
 71
     3
 72
     8
 73
     4
 74
     0
 42
0.0000000001
 43
0.0000000001
 40
0.0
 40
0.0
 40
0.0
 40
0.0
 40
1.0
 40
1.0
 40
1.0
 40
1.0
 10
2.44761811023622
 20
8.352874015748032
 30
0.0
 10
2.44761811023622
 20
8.352874015748032
 30
0.0
 10
2.44761811023622
 20
7.903795275590551
 30
0.0
 10
2.44761811023622
 20
7.903795275590551
 30
0.0
  0
SPLINE
  5
F9
330
1F
100
AcDbEntity
  8
Layer 1
 62
   250
370
   106
100
AcDbSpline
210
0.0
220
0.0
230
1.0
 70
    24
 71
     3
 72
     8
 73
     4
 74
     0
 42
0.0000000001
 43
0.0000000001
 40
0.0
 40
0.0
 40
0.0
 40
0.0
 40
1.0
 40
1.0
 40
1.0
 40
1.0
 10
4.44761811023622
 20
8.352874015748032
 30
0.0
 10
4.44761811023622
 20
8.352874015748032
 30
0.0
 10
4.44761811023622
 20
7.904763779527559
 30
0.0
 10
4.44761811023622
 20
7.904763779527559
 30
0.0
  0
SPLINE
  5
FA
330
1F
100
AcDbEntity
  8
Layer 1
 62
   250
370
   106
100
AcDbSpline
210
0.0
220
0.0
230
1.0
 70
    24
 71
     3
 72
     8
 73
     4
 74
     0
 42
0.0000000001
 43
0.0000000001
 40
0.0
 40
0.0
 40
0.0
 40
0.0
 40
1.0
 40
1.0
 40
1.0
 40
1.0
 10
3.44761811023622
 20
7.904763779527559
 30
0.0
 10
3.44761811023622
 20
7.904763779527559
 30
0.0
 10
3.44761811023622
 20
8.352874015748032
 30
0.0
 10
3.44761811023622
 20
8.352874015748032
 30
0.0
  0
TEXT
  5
FC
330
1F
100
AcDbEntity
  8
Layer 1
 62
   250
100
AcDbText
 10
-7.505125984251968
 20
8.148751968503937
 30
0.0
 40
0.18
  1
1
 51
-0.0000015352345087
  7
24
100
AcDbText
  0
TEXT
  5
FE
330
1F
100
AcDbEntity
  8
Layer 1
 62
   250
100
AcDbText
 10
-6.468669291338583
 20
8.148751968503937
 30
0.0
 40
0.18
  1
2
 51
-0.0000015352345087
  7
25
100
AcDbText
  0
TEXT
  5
100
330
1F
100
AcDbEntity
  8
Layer 1
 62
   250
100
AcDbText
 10
-5.490248031496063
 20
8.148751968503937
 30
0.0
 40
0.18
  1
3
 51
-0.0000015352345087
  7
26
100
AcDbText
  0
TEXT
  5
102
330
1F
100
AcDbEntity
  8
Layer 1
 62
   250
100
AcDbText
 10
-4.480728346456693
 20
8.149503937007875
 30
0.0
 40
0.18
  1
4
 51
-0.0000015352345087
  7
27
100
AcDbText
  0
TEXT
  5
104
330
1F
100
AcDbEntity
  8
Layer 1
 62
   250
100
AcDbText
 10
-3.480374015748032
 20
8.15196062992126
 30
0.0
 40
0.18
  1
5
 51
-0.0000015352345087
  7
28
100
AcDbText
  0
TEXT
  5
106
330
1F
100
AcDbEntity
  8
Layer 1
 62
   250
100
AcDbText
 10
-2.490787401574803
 20
8.148751968503937
 30
0.0
 40
0.18
  1
6
 51
-0.0000015352345087
  7
29
100
AcDbText
  0
TEXT
  5
108
330
1F
100
AcDbEntity
  8
Layer 1
 62
   250
100
AcDbText
 10
-1.480685039370079
 20
8.151834645669291
 30
0.0
 40
0.18
  1
7
 51
-0.0000015352345087
  7
30
100
AcDbText
  0
TEXT
  5
10A
330
1F
100
AcDbEntity
  8
Layer 1
 62
   250
100
AcDbText
 10
-0.4807283464566929
 20
8.148751968503937
 30
0.0
 40
0.18
  1
8
 51
-0.0000015352345087
  7
31
100
AcDbText
  0
TEXT
  5
10C
330
1F
100
AcDbEntity
  8
Layer 1
 62
   250
100
AcDbText
 10
0.5088543307086615
 20
8.148751968503937
 30
0.0
 40
0.18
  1
9
 51
-0.0000015352345087
  7
32
100
AcDbText
  0
TEXT
  5
10E
330
1F
100
AcDbEntity
  8
Layer 1
 62
   250
100
AcDbText
 10
1.570251968503937
 20
8.148751968503937
 30
0.0
 40
0.18
  1
10
 51
-0.0000015352345087
  7
33
100
AcDbText
  0
TEXT
  5
110
330
1F
100
AcDbEntity
  8
Layer 1
 62
   250
100
AcDbText
 10
2.522043307086614
 20
8.148751968503937
 30
0.0
 40
0.18
  1
11
 51
-0.0000015352345087
  7
34
100
AcDbText
  0
TEXT
  5
112
330
1F
100
AcDbEntity
  8
Layer 1
 62
   250
100
AcDbText
 10
3.548295275590551
 20
8.148751968503937
 30
0.0
 40
0.18
  1
12
 51
-0.0000015352345087
  7
35
100
AcDbText
  0
TEXT
  5
114
330
1F
100
AcDbEntity
  8
Layer 1
 62
   250
100
AcDbText
 10
4.522649606299213
 20
8.148751968503937
 30
0.0
 40
0.18
  1
13
 51
-0.0000015352345087
  7
36
100
AcDbText
  0
TEXT
  5
116
330
1F
100
AcDbEntity
  8
Layer 1
 62
   250
100
AcDbText
 10
5.521751968503938
 20
8.148751968503937
 30
0.0
 40
0.18
  1
14
 51
-0.0000015352345087
  7
37
100
AcDbText
  0
TEXT
  5
118
330
1F
100
AcDbEntity
  8
Layer 1
 62
   250
100
AcDbText
 10
6.523314960629921
 20
8.148751968503937
 30
0.0
 40
0.18
  1
15
 51
-0.0000015352345087
  7
38
100
AcDbText
  0
TEXT
  5
119
330
1F
100
AcDbEntity
  8
Layer 1
 62
   250
100
AcDbText
 10
5.04838188976378
 20
6.069181102362205
 30
0.0
 40
0.36
  1
Copyright Zombie Cat, Inc.
 51
-0.0000015352345087
  7
0
100
AcDbText
  0
IMAGE
  5
11C
330
1F
100
AcDbEntity
  8
Layer 1
 62
   250
 92
      140
310
8C00000001000000840000000600000005000000255C3A9F7AC4194060E9285D2551134000000000000000002FF50E6C0454224060E9285D2551134000000000000000002FF50E6C04542240B63E7EB27A2617400000000000000000255C3A9F7AC41940B63E7EB27A2617400000000000000000255C3A9F7AC4194060E928
310
5D255113400000000000000000
100
AcDbRasterImage
 90
        0
 10
6.441874015748032
 20
4.829244094488189
 30
0.0
 11
0.01388888888888889
 21
0.0
 31
0.0
 12
0.0
 22
0.01388888888888889
 32
0.0
 13
196.0
 23
69.0
340
11B
 70
     3
280
     1
281
    50
282
    50
283
     0
360
11D
 71
     1
 91
        2
 14
6.441874015748032
 24
4.829244094488189
 14
9.169413385826772
 24
5.790082677165354
  0
ENDSEC
  0
SECTION
  2
OBJECTS
  0
DICTIONARY
  5
C
330
0
100
AcDbDictionary
281
     1
  3
ACAD_GROUP
350
D
  3
ACAD_IMAGE_DICT
350
11A
  3
ACAD_IMAGE_VARS
350
142
  3
ACAD_LAYOUT
350
1A
  3
ACAD_MATERIAL
350
3B
  3
ACAD_MLEADERSTYLE
350
141
  3
ACAD_MLINESTYLE
350
17
  3
ACAD_PLOTSETTINGS
350
19
  3
ACAD_PLOTSTYLENAME
350
E
  3
ACAD_SCALELIST
350
97
  3
ACAD_TABLESTYLE
350
140
  3
ACAD_VISUALSTYLE
350
2A
  3
AcDbVariableDictionary
350
11E
  0
IMAGEDEF_REACTOR
  5
11D
330
11C
100
AcDbRasterImageDefReactor
 90
        2
330
11C
  0
DICTIONARY
  5
D
102
{ACAD_REACTORS
330
C
102
}
330
C
100
AcDbDictionary
281
     1
  0
DICTIONARY
  5
11A
102
{ACAD_REACTORS
330
C
102
}
330
C
100
AcDbDictionary
281
     1
  3
Image #1
350
11B
  0
RASTERVARIABLES
  5
142
102
{ACAD_REACTORS
330
C
102
}
330
C
100
AcDbRasterVariables
 90
        0
 70
     1
 71
     1
 72
     5
  0
DICTIONARY
  5
1A
102
{ACAD_REACTORS
330
C
102
}
330
C
100
AcDbDictionary
281
     1
  3
Layout1
350
1E
  3
Layout2
350
26
  3
Model
350
22
  0
DICTIONARY
  5
3B
102
{ACAD_REACTORS
330
C
102
}
330
C
100
AcDbDictionary
281
     1
  3
ByBlock
350
3D
  3
ByLayer
350
3C
  3
Global
350
3E
  0
DICTIONARY
  5
141
102
{ACAD_REACTORS
330
C
102
}
330
C
100
AcDbDictionary
281
     1
  0
DICTIONARY
  5
17
102
{ACAD_REACTORS
330
C
102
}
330
C
100
AcDbDictionary
281
     1
  3
Standard
350
18
  0
DICTIONARY
  5
19
102
{ACAD_REACTORS
330
C
102
}
330
C
100
AcDbDictionary
281
     1
  0
ACDBDICTIONARYWDFLT
  5
E
102
{ACAD_REACTORS
330
C
102
}
330
C
100
AcDbDictionary
281
     1
  3
Normal
350
F
100
AcDbDictionaryWithDefault
340
F
  0
DICTIONARY
  5
97
102
{ACAD_REACTORS
330
C
102
}
330
C
100
AcDbDictionary
281
     1
  3
A0
350
98
  3
A1
350
99
  3
A2
350
9A
  3
A3
350
9B
  3
A4
350
9C
  3
A5
350
9D
  3
A6
350
9E
  3
A7
350
9F
  3
A8
350
A0
  3
A9
350
A1
  3
B0
350
A2
  3
B1
350
A3
  3
B2
350
A4
  3
B3
350
A5
  3
B4
350
A6
  3
B5
350
A7
  3
B6
350
A8
  3
B7
350
A9
  3
B8
350
AA
  3
B9
350
AB
  3
C0
350
AC
  3
C1
350
AD
  3
C2
350
AE
  3
C3
350
AF
  3
C4
350
B0
  3
C5
350
B1
  3
C6
350
B2
  3
C7
350
B3
  3
C8
350
B4
  3
C9
350
B5
  3
D0
350
B6
  3
D1
350
B7
  3
D2
350
B8
  0
DICTIONARY
  5
140
102
{ACAD_REACTORS
330
C
102
}
330
C
100
AcDbDictionary
281
     1
  0
DICTIONARY
  5
2A
102
{ACAD_REACTORS
330
C
102
}
330
C
100
AcDbDictionary
281
     1
  3
2dWireframe
350
2F
  3
3D Hidden
350
31
  3
3dWireframe
350
30
  3
Basic
350
32
  3
Brighten
350
36
  3
ColorChange
350
3A
  3
Conceptual
350
34
  3
Dim
350
35
  3
Facepattern
350
39
  3
Flat
350
2B
  3
FlatWithEdges
350
2C
  3
Gouraud
350
2D
  3
GouraudWithEdges
350
2E
  3
Linepattern
350
38
  3
Realistic
350
33
  3
Thicken
350
37
  0
DICTIONARY
  5
11E
102
{ACAD_REACTORS
330
C
102
}
330
C
100
AcDbDictionary
281
     1
  3
CANNOSCALE
350
11F
  0
IMAGEDEF
  5
11B
102
{ACAD_REACTORS
330
11A
330
11D
102
}
330
11A
100
AcDbRasterImageDef
 90
        0
  1
\\psf\Home\Documents\Magic Briefcase\zcat\lawofsines_ACD_0.jpg
 10
196.0
 20
69.0
 11
0.00510204081632653
 21
0.00510204081632653
280
     1
281
     5
  0
LAYOUT
  5
1E
102
{ACAD_REACTORS
330
1A
102
}
330
1A
100
AcDbPlotSettings
  1

  2
none_device
  4

  6

 40
0.0
 41
0.0
 42
0.0
 43
0.0
 44
0.0
 45
0.0
 46
0.0
 47
0.0
 48
0.0
 49
0.0
140
0.0
141
0.0
142
1.0
143
1.0
 70
   688
 72
     0
 73
     0
 74
     5
  7

 75
    16
 76
     0
 77
     2
 78
   300
147
1.0
148
0.0
149
0.0
100
AcDbLayout
  1
Layout1
 70
     1
 71
     1
 10
0.0
 20
0.0
 11
12.0
 21
9.0
 12
0.0
 22
0.0
 32
0.0
 14
1.000000000000000E+20
 24
1.000000000000000E+20
 34
1.000000000000000E+20
 15
-1.000000000000000E+20
 25
-1.000000000000000E+20
 35
-1.000000000000000E+20
146
0.0
 13
0.0
 23
0.0
 33
0.0
 16
1.0
 26
0.0
 36
0.0
 17
0.0
 27
1.0
 37
0.0
 76
     0
330
1B
  0
LAYOUT
  5
26
102
{ACAD_REACTORS
330
1A
102
}
330
1A
100
AcDbPlotSettings
  1

  2
none_device
  4

  6

 40
0.0
 41
0.0
 42
0.0
 43
0.0
 44
0.0
 45
0.0
 46
0.0
 47
0.0
 48
0.0
 49
0.0
140
0.0
141
0.0
142
1.0
143
1.0
 70
   688
 72
     0
 73
     0
 74
     5
  7

 75
    16
 76
     0
 77
     2
 78
   300
147
1.0
148
0.0
149
0.0
100
AcDbLayout
  1
Layout2
 70
     1
 71
     2
 10
0.0
 20
0.0
 11
0.0
 21
0.0
 12
0.0
 22
0.0
 32
0.0
 14
0.0
 24
0.0
 34
0.0
 15
0.0
 25
0.0
 35
0.0
146
0.0
 13
0.0
 23
0.0
 33
0.0
 16
1.0
 26
0.0
 36
0.0
 17
0.0
 27
1.0
 37
0.0
 76
     0
330
23
  0
LAYOUT
  5
22
102
{ACAD_REACTORS
330
1A
102
}
330
1A
100
AcDbPlotSettings
  1

  2
none_device
  4

  6

 40
0.0
 41
0.0
 42
0.0
 43
0.0
 44
0.0
 45
0.0
 46
0.0
 47
0.0
 48
0.0
 49
0.0
140
0.0
141
0.0
142
1.0
143
1.0
 70
  1712
 72
     0
 73
     0
 74
     0
  7

 75
     0
 76
     0
 77
     2
 78
   300
147
1.0
148
0.0
149
0.0
100
AcDbLayout
  1
Model
 70
     1
 71
     0
 10
0.0
 20
0.0
 11
12.0
 21
9.0
 12
0.0
 22
0.0
 32
0.0
 14
-11.97591338582677
 24
4.829244094488189
 34
0.0
 15
11.38785433070866
 25
8.933452755905511
 35
0.0
146
0.0
 13
0.0
 23
0.0
 33
0.0
 16
1.0
 26
0.0
 36
0.0
 17
0.0
 27
1.0
 37
0.0
 76
     0
330
1F
331
29
  0
MATERIAL
  5
3D
102
{ACAD_REACTORS
330
3B
102
}
330
3B
100
AcDbMaterial
  1
ByBlock
 72
     1
 94
      127
  0
MATERIAL
  5
3C
102
{ACAD_REACTORS
330
3B
102
}
330
3B
100
AcDbMaterial
  1
ByLayer
 72
     1
 94
      127
  0
MATERIAL
  5
3E
102
{ACAD_REACTORS
330
3B
102
}
330
3B
100
AcDbMaterial
  1
Global
 72
     1
 94
      127
  0
MLINESTYLE
  5
18
102
{ACAD_REACTORS
330
17
102
}
330
17
100
AcDbMlineStyle
  2
Standard
 70
     0
  3

 62
   256
 51
90.0
 52
90.0
 71
     2
 49
0.5
 62
   256
  6
BYLAYER
 49
-0.5
 62
   256
  6
BYLAYER
  0
ACDBPLACEHOLDER
  5
F
102
{ACAD_REACTORS
330
E
102
}
330
E
  0
SCALE
  5
98
102
{ACAD_REACTORS
330
97
102
}
330
97
100
AcDbScale
 70
     0
300
1:1
140
1.0
141
1.0
290
     1
  0
SCALE
  5
99
102
{ACAD_REACTORS
330
97
102
}
330
97
100
AcDbScale
 70
     0
300
1:2
140
1.0
141
2.0
290
     0
  0
SCALE
  5
9A
102
{ACAD_REACTORS
330
97
102
}
330
97
100
AcDbScale
 70
     0
300
1:4
140
1.0
141
4.0
290
     0
  0
SCALE
  5
9B
102
{ACAD_REACTORS
330
97
102
}
330
97
100
AcDbScale
 70
     0
300
1:5
140
1.0
141
5.0
290
     0
  0
SCALE
  5
9C
102
{ACAD_REACTORS
330
97
102
}
330
97
100
AcDbScale
 70
     0
300
1:8
140
1.0
141
8.0
290
     0
  0
SCALE
  5
9D
102
{ACAD_REACTORS
330
97
102
}
330
97
100
AcDbScale
 70
     0
300
1:10
140
1.0
141
10.0
290
     0
  0
SCALE
  5
9E
102
{ACAD_REACTORS
330
97
102
}
330
97
100
AcDbScale
 70
     0
300
1:16
140
1.0
141
16.0
290
     0
  0
SCALE
  5
9F
102
{ACAD_REACTORS
330
97
102
}
330
97
100
AcDbScale
 70
     0
300
1:20
140
1.0
141
20.0
290
     0
  0
SCALE
  5
A0
102
{ACAD_REACTORS
330
97
102
}
330
97
100
AcDbScale
 70
     0
300
1:30
140
1.0
141
30.0
290
     0
  0
SCALE
  5
A1
102
{ACAD_REACTORS
330
97
102
}
330
97
100
AcDbScale
 70
     0
300
1:40
140
1.0
141
40.0
290
     0
  0
SCALE
  5
A2
102
{ACAD_REACTORS
330
97
102
}
330
97
100
AcDbScale
 70
     0
300
1:50
140
1.0
141
50.0
290
     0
  0
SCALE
  5
A3
102
{ACAD_REACTORS
330
97
102
}
330
97
100
AcDbScale
 70
     0
300
1:100
140
1.0
141
100.0
290
     0
  0
SCALE
  5
A4
102
{ACAD_REACTORS
330
97
102
}
330
97
100
AcDbScale
 70
     0
300
2:1
140
2.0
141
1.0
290
     0
  0
SCALE
  5
A5
102
{ACAD_REACTORS
330
97
102
}
330
97
100
AcDbScale
 70
     0
300
4:1
140
4.0
141
1.0
290
     0
  0
SCALE
  5
A6
102
{ACAD_REACTORS
330
97
102
}
330
97
100
AcDbScale
 70
     0
300
8:1
140
8.0
141
1.0
290
     0
  0
SCALE
  5
A7
102
{ACAD_REACTORS
330
97
102
}
330
97
100
AcDbScale
 70
     0
300
10:1
140
10.0
141
1.0
290
     0
  0
SCALE
  5
A8
102
{ACAD_REACTORS
330
97
102
}
330
97
100
AcDbScale
 70
     0
300
100:1
140
100.0
141
1.0
290
     0
  0
SCALE
  5
A9
102
{ACAD_REACTORS
330
97
102
}
330
97
100
AcDbScale
 70
     0
300
1/128" = 1'-0"
140
0.0078125
141
12.0
290
     0
  0
SCALE
  5
AA
102
{ACAD_REACTORS
330
97
102
}
330
97
100
AcDbScale
 70
     0
300
1/64" = 1'-0"
140
0.015625
141
12.0
290
     0
  0
SCALE
  5
AB
102
{ACAD_REACTORS
330
97
102
}
330
97
100
AcDbScale
 70
     0
300
1/32" = 1'-0"
140
0.03125
141
12.0
290
     0
  0
SCALE
  5
AC
102
{ACAD_REACTORS
330
97
102
}
330
97
100
AcDbScale
 70
     0
300
1/16" = 1'-0"
140
0.0625
141
12.0
290
     0
  0
SCALE
  5
AD
102
{ACAD_REACTORS
330
97
102
}
330
97
100
AcDbScale
 70
     0
300
3/32" = 1'-0"
140
0.09375
141
12.0
290
     0
  0
SCALE
  5
AE
102
{ACAD_REACTORS
330
97
102
}
330
97
100
AcDbScale
 70
     0
300
1/8" = 1'-0"
140
0.125
141
12.0
290
     0
  0
SCALE
  5
AF
102
{ACAD_REACTORS
330
97
102
}
330
97
100
AcDbScale
 70
     0
300
3/16" = 1'-0"
140
0.1875
141
12.0
290
     0
  0
SCALE
  5
B0
102
{ACAD_REACTORS
330
97
102
}
330
97
100
AcDbScale
 70
     0
300
1/4" = 1'-0"
140
0.25
141
12.0
290
     0
  0
SCALE
  5
B1
102
{ACAD_REACTORS
330
97
102
}
330
97
100
AcDbScale
 70
     0
300
3/8" = 1'-0"
140
0.375
141
12.0
290
     0
  0
SCALE
  5
B2
102
{ACAD_REACTORS
330
97
102
}
330
97
100
AcDbScale
 70
     0
300
1/2" = 1'-0"
140
0.5
141
12.0
290
     0
  0
SCALE
  5
B3
102
{ACAD_REACTORS
330
97
102
}
330
97
100
AcDbScale
 70
     0
300
3/4" = 1'-0"
140
0.75
141
12.0
290
     0
  0
SCALE
  5
B4
102
{ACAD_REACTORS
330
97
102
}
330
97
100
AcDbScale
 70
     0
300
1" = 1'-0"
140
1.0
141
12.0
290
     0
  0
SCALE
  5
B5
102
{ACAD_REACTORS
330
97
102
}
330
97
100
AcDbScale
 70
     0
300
1-1/2" = 1'-0"
140
1.5
141
12.0
290
     0
  0
SCALE
  5
B6
102
{ACAD_REACTORS
330
97
102
}
330
97
100
AcDbScale
 70
     0
300
3" = 1'-0"
140
3.0
141
12.0
290
     0
  0
SCALE
  5
B7
102
{ACAD_REACTORS
330
97
102
}
330
97
100
AcDbScale
 70
     0
300
6" = 1'-0"
140
6.0
141
12.0
290
     0
  0
SCALE
  5
B8
102
{ACAD_REACTORS
330
97
102
}
330
97
100
AcDbScale
 70
     0
300
1'-0" = 1'-0"
140
12.0
141
12.0
290
     0
  0
VISUALSTYLE
  5
2F
102
{ACAD_REACTORS
330
2A
102
}
102
{ACAD_XDICTIONARY
360
128
102
}
330
2A
100
AcDbVisualStyle
  2
2dWireframe
 70
     4
 71
     0
 72
     2
 73
     0
 90
        0
 40
-0.6
 41
-30.0
 62
     5
 63
     7
421
 16777215
 74
     1
 91
        4
 64
     7
 65
   257
 75
     1
175
     1
 42
1.0
 92
        0
 66
   257
 43
1.0
 76
     1
 77
     6
 78
     2
 67
     7
 79
     5
170
     0
171
     0
290
     0
174
     0
 93
        1
 44
0.0
173
     0
291
     0
 45
0.0
  0
VISUALSTYLE
  5
31
102
{ACAD_REACTORS
330
2A
102
}
102
{ACAD_XDICTIONARY
360
12C
102
}
330
2A
100
AcDbVisualStyle
  2
3D Hidden
 70
     6
 71
     1
 72
     2
 73
     2
 90
        0
 40
-0.6
 41
-30.0
 62
     5
 63
     7
421
 16777215
 74
     2
 91
        2
 64
     7
 65
   257
 75
     2
175
     1
 42
40.0
 92
        0
 66
   257
 43
1.0
 76
     1
 77
     6
 78
     2
 67
     7
 79
     3
170
     0
171
     0
290
     0
174
     0
 93
        1
 44
0.0
173
     0
291
     0
 45
0.0
  0
VISUALSTYLE
  5
30
102
{ACAD_REACTORS
330
2A
102
}
102
{ACAD_XDICTIONARY
360
12A
102
}
330
2A
100
AcDbVisualStyle
  2
3dWireframe
 70
     5
 71
     0
 72
     2
 73
     0
 90
        0
 40
-0.6
 41
-30.0
 62
     5
 63
     7
421
 16777215
 74
     1
 91
        4
 64
     7
 65
   257
 75
     1
175
     1
 42
1.0
 92
        0
 66
   257
 43
1.0
 76
     1
 77
     6
 78
     2
 67
     7
 79
     5
170
     0
171
     0
290
     0
174
     0
 93
        1
 44
0.0
173
     0
291
     0
 45
0.0
  0
VISUALSTYLE
  5
32
102
{ACAD_REACTORS
330
2A
102
}
102
{ACAD_XDICTIONARY
360
12E
102
}
330
2A
100
AcDbVisualStyle
  2
Basic
 70
     7
 71
     1
 72
     0
 73
     1
 90
        0
 40
-0.6
 41
-30.0
 62
     5
 63
     7
421
 16777215
 74
     0
 91
        4
 64
     7
 65
   257
 75
     1
175
     1
 42
1.0
 92
        8
 66
     7
 43
1.0
 76
     1
 77
     6
 78
     2
 67
     7
 79
     5
170
     0
171
     0
290
     0
174
     0
 93
        1
 44
0.0
173
     0
291
     1
 45
0.0
  0
VISUALSTYLE
  5
36
102
{ACAD_REACTORS
330
2A
102
}
102
{ACAD_XDICTIONARY
360
136
102
}
330
2A
100
AcDbVisualStyle
  2
Brighten
 70
    12
 71
     2
 72
     2
 73
     0
 90
        0
 40
-0.6
 41
-30.0
 62
     5
 63
     7
421
 16777215
 74
     1
 91
        4
 64
     7
 65
   257
 75
     1
175
     1
 42
1.0
 92
        8
 66
     7
 43
1.0
 76
     1
 77
     6
 78
     2
 67
     7
 79
     5
170
     0
171
     0
290
     0
174
     0
 93
        1
 44
50.0
173
     0
291
     1
 45
0.0
  0
VISUALSTYLE
  5
3A
102
{ACAD_REACTORS
330
2A
102
}
102
{ACAD_XDICTIONARY
360
13E
102
}
330
2A
100
AcDbVisualStyle
  2
ColorChange
 70
    16
 71
     2
 72
     2
 73
     3
 90
        0
 40
-0.6
 41
-30.0
 62
     5
 63
     8
421
  8421504
 74
     1
 91
        4
 64
     7
 65
   257
 75
     1
175
     1
 42
1.0
 92
        8
 66
     8
424
  8421504
 43
1.0
 76
     1
 77
     6
 78
     2
 67
     7
 79
     5
170
     0
171
     0
290
     0
174
     0
 93
        1
 44
0.0
173
     0
291
     1
 45
0.0
  0
VISUALSTYLE
  5
34
102
{ACAD_REACTORS
330
2A
102
}
102
{ACAD_XDICTIONARY
360
132
102
}
330
2A
100
AcDbVisualStyle
  2
Conceptual
 70
     9
 71
     3
 72
     2
 73
     0
 90
        0
 40
-0.6
 41
-30.0
 62
     5
 63
     7
421
 16777215
 74
     2
 91
        2
 64
     7
 65
   257
 75
     1
175
     1
 42
40.0
 92
        8
 66
     7
 43
1.0
 76
     1
 77
     6
 78
     2
 67
     7
 79
     3
170
     0
171
     0
290
     0
174
     0
 93
        1
 44
0.0
173
     0
291
     0
 45
0.0
  0
VISUALSTYLE
  5
35
102
{ACAD_REACTORS
330
2A
102
}
102
{ACAD_XDICTIONARY
360
134
102
}
330
2A
100
AcDbVisualStyle
  2
Dim
 70
    11
 71
     2
 72
     2
 73
     0
 90
        0
 40
-0.6
 41
-30.0
 62
     5
 63
     7
421
 16777215
 74
     1
 91
        4
 64
     7
 65
   257
 75
     1
175
     1
 42
1.0
 92
        8
 66
     7
 43
1.0
 76
     1
 77
     6
 78
     2
 67
     7
 79
     5
170
     0
171
     0
290
     0
174
     0
 93
        1
 44
-50.0
173
     0
291
     1
 45
0.0
  0
VISUALSTYLE
  5
39
102
{ACAD_REACTORS
330
2A
102
}
102
{ACAD_XDICTIONARY
360
13C
102
}
330
2A
100
AcDbVisualStyle
  2
Facepattern
 70
    15
 71
     2
 72
     2
 73
     0
 90
        0
 40
-0.6
 41
-30.0
 62
     5
 63
     7
421
 16777215
 74
     1
 91
        4
 64
     7
 65
   257
 75
     1
175
     1
 42
1.0
 92
        8
 66
     7
 43
1.0
 76
     1
 77
     6
 78
     2
 67
     7
 79
     5
170
     0
171
     0
290
     0
174
     0
 93
        1
 44
0.0
173
     0
291
     1
 45
0.0
  0
VISUALSTYLE
  5
2B
102
{ACAD_REACTORS
330
2A
102
}
102
{ACAD_XDICTIONARY
360
120
102
}
330
2A
100
AcDbVisualStyle
  2
Flat
 70
     0
 71
     2
 72
     1
 73
     1
 90
        2
 40
-0.6
 41
30.0
 62
     5
 63
     7
421
 16777215
 74
     0
 91
        4
 64
     7
 65
   257
 75
     1
175
     1
 42
1.0
 92
        8
 66
     7
 43
1.0
 76
     1
 77
     6
 78
     2
 67
     7
 79
     5
170
     0
171
     0
290
     0
174
     0
 93
       13
 44
0.0
173
     0
291
     1
 45
0.0
  0
VISUALSTYLE
  5
2C
102
{ACAD_REACTORS
330
2A
102
}
102
{ACAD_XDICTIONARY
360
122
102
}
330
2A
100
AcDbVisualStyle
  2
FlatWithEdges
 70
     1
 71
     2
 72
     1
 73
     1
 90
        2
 40
-0.6
 41
30.0
 62
     5
 63
     7
421
 16777215
 74
     1
 91
        4
 64
     7
 65
   257
 75
     1
175
     1
 42
1.0
 92
        0
 66
   257
 43
1.0
 76
     1
 77
     6
 78
     2
 67
     7
 79
     5
170
     0
171
     0
290
     0
174
     0
 93
       13
 44
0.0
173
     0
291
     1
 45
0.0
  0
VISUALSTYLE
  5
2D
102
{ACAD_REACTORS
330
2A
102
}
102
{ACAD_XDICTIONARY
360
124
102
}
330
2A
100
AcDbVisualStyle
  2
Gouraud
 70
     2
 71
     2
 72
     2
 73
     1
 90
        2
 40
-0.6
 41
30.0
 62
     5
 63
     7
421
 16777215
 74
     0
 91
        4
 64
     7
 65
   257
 75
     1
175
     1
 42
1.0
 92
        0
 66
     7
 43
1.0
 76
     1
 77
     6
 78
     2
 67
     7
 79
     5
170
     0
171
     0
290
     0
174
     0
 93
       13
 44
0.0
173
     0
291
     1
 45
0.0
  0
VISUALSTYLE
  5
2E
102
{ACAD_REACTORS
330
2A
102
}
102
{ACAD_XDICTIONARY
360
126
102
}
330
2A
100
AcDbVisualStyle
  2
GouraudWithEdges
 70
     3
 71
     2
 72
     2
 73
     1
 90
        2
 40
-0.6
 41
30.0
 62
     5
 63
     7
421
 16777215
 74
     1
 91
        4
 64
     7
 65
   257
 75
     1
175
     1
 42
1.0
 92
        0
 66
   257
 43
1.0
 76
     1
 77
     6
 78
     2
 67
     7
 79
     5
170
     0
171
     0
290
     0
174
     0
 93
       13
 44
0.0
173
     0
291
     1
 45
0.0
  0
VISUALSTYLE
  5
38
102
{ACAD_REACTORS
330
2A
102
}
102
{ACAD_XDICTIONARY
360
13A
102
}
330
2A
100
AcDbVisualStyle
  2
Linepattern
 70
    14
 71
     2
 72
     2
 73
     0
 90
        0
 40
-0.6
 41
-30.0
 62
     5
 63
     7
421
 16777215
 74
     1
 91
        4
 64
     7
 65
   257
 75
     7
175
     7
 42
1.0
 92
        8
 66
     7
 43
1.0
 76
     1
 77
     6
 78
     2
 67
     7
 79
     5
170
     0
171
     0
290
     0
174
     0
 93
        1
 44
0.0
173
     0
291
     1
 45
0.0
  0
VISUALSTYLE
  5
33
102
{ACAD_REACTORS
330
2A
102
}
102
{ACAD_XDICTIONARY
360
130
102
}
330
2A
100
AcDbVisualStyle
  2
Realistic
 70
     8
 71
     2
 72
     2
 73
     0
 90
        0
 40
-0.6
 41
-30.0
 62
     5
 63
     7
421
 16777215
 74
     1
 91
        0
 64
     7
 65
   257
 75
     1
175
     1
 42
1.0
 92
        8
 66
     8
424
  7895160
 43
1.0
 76
     1
 77
     6
 78
     2
 67
     7
 79
     5
170
     0
171
     0
290
     0
174
     0
 93
       13
 44
0.0
173
     0
291
     0
 45
0.0
  0
VISUALSTYLE
  5
37
102
{ACAD_REACTORS
330
2A
102
}
102
{ACAD_XDICTIONARY
360
138
102
}
330
2A
100
AcDbVisualStyle
  2
Thicken
 70
    13
 71
     2
 72
     2
 73
     0
 90
        0
 40
-0.6
 41
-30.0
 62
     5
 63
     7
421
 16777215
 74
     1
 91
        4
 64
     7
 65
   257
 75
     1
175
     1
 42
1.0
 92
       12
 66
     7
 43
1.0
 76
     1
 77
     6
 78
     2
 67
     7
 79
     5
170
     0
171
     0
290
     0
174
     0
 93
        1
 44
0.0
173
     0
291
     1
 45
0.0
  0
DICTIONARYVAR
  5
11F
102
{ACAD_REACTORS
330
11E
102
}
330
11E
100
DictionaryVariables
280
     0
  1
1:1
  0
DICTIONARY
  5
128
330
2F
100
AcDbDictionary
280
     1
281
     1
  3
ACAD_XREC_ROUNDTRIP
360
129
  0
DICTIONARY
  5
12C
330
31
100
AcDbDictionary
280
     1
281
     1
  3
ACAD_XREC_ROUNDTRIP
360
12D
  0
DICTIONARY
  5
12A
330
30
100
AcDbDictionary
280
     1
281
     1
  3
ACAD_XREC_ROUNDTRIP
360
12B
  0
DICTIONARY
  5
12E
330
32
100
AcDbDictionary
280
     1
281
     1
  3
ACAD_XREC_ROUNDTRIP
360
12F
  0
DICTIONARY
  5
136
330
36
100
AcDbDictionary
280
     1
281
     1
  3
ACAD_XREC_ROUNDTRIP
360
137
  0
DICTIONARY
  5
13E
330
3A
100
AcDbDictionary
280
     1
281
     1
  3
ACAD_XREC_ROUNDTRIP
360
13F
  0
DICTIONARY
  5
132
330
34
100
AcDbDictionary
280
     1
281
     1
  3
ACAD_XREC_ROUNDTRIP
360
133
  0
DICTIONARY
  5
134
330
35
100
AcDbDictionary
280
     1
281
     1
  3
ACAD_XREC_ROUNDTRIP
360
135
  0
DICTIONARY
  5
13C
330
39
100
AcDbDictionary
280
     1
281
     1
  3
ACAD_XREC_ROUNDTRIP
360
13D
  0
DICTIONARY
  5
120
330
2B
100
AcDbDictionary
280
     1
281
     1
  3
ACAD_XREC_ROUNDTRIP
360
121
  0
DICTIONARY
  5
122
330
2C
100
AcDbDictionary
280
     1
281
     1
  3
ACAD_XREC_ROUNDTRIP
360
123
  0
DICTIONARY
  5
124
330
2D
100
AcDbDictionary
280
     1
281
     1
  3
ACAD_XREC_ROUNDTRIP
360
125
  0
DICTIONARY
  5
126
330
2E
100
AcDbDictionary
280
     1
281
     1
  3
ACAD_XREC_ROUNDTRIP
360
127
  0
DICTIONARY
  5
13A
330
38
100
AcDbDictionary
280
     1
281
     1
  3
ACAD_XREC_ROUNDTRIP
360
13B
  0
DICTIONARY
  5
130
330
33
100
AcDbDictionary
280
     1
281
     1
  3
ACAD_XREC_ROUNDTRIP
360
131
  0
DICTIONARY
  5
138
330
37
100
AcDbDictionary
280
     1
281
     1
  3
ACAD_XREC_ROUNDTRIP
360
139
  0
XRECORD
  5
129
102
{ACAD_REACTORS
330
128
102
}
330
128
100
AcDbXrecord
280
     1
102
RTVSPropertyOp0
 70
     1
102
RTVSPropertyOp1
 70
     1
102
RTVSPropertyOp2
 70
     1
102
RTVSPropertyOp3
 70
     1
102
RTVSPropertyOp4
 70
     1
102
RTVSPropertyOp5
 70
     1
102
RTVSPropertyOp6
 70
     1
102
RTVSPropertyOp7
 70
     1
102
RTVSPropertyOp8
 70
     1
102
RTVSPropertyOp9
 70
     1
102
RTVSPropertyOp10
 70
     1
102
RTVSPropertyOp11
 70
     1
102
RTVSPropertyOp12
 70
     1
102
RTVSPropertyOp13
 70
     1
102
RTVSPropertyOp14
 70
     1
102
RTVSPropertyOp15
 70
     1
102
RTVSPropertyOp16
 70
     1
102
RTVSPropertyOp17
 70
     1
102
RTVSPropertyOp18
 70
     1
102
RTVSPropertyOp19
 70
     1
102
RTVSPropertyOp20
 70
     1
102
RTVSPropertyOp21
 70
     1
102
RTVSPropertyOp22
 70
     1
102
RTVSPropertyOp23
 70
     1
102
RTVSPropertyOp24
 70
     1
102
RTVSPropertyOp25
 70
     1
102
RTVSPropertyOp26
 70
     1
102
RTVSPropertyOp27
 70
     1
  0
XRECORD
  5
12D
102
{ACAD_REACTORS
330
12C
102
}
330
12C
100
AcDbXrecord
280
     1
102
RTVSPropertyOp0
 70
     1
102
RTVSPropertyOp1
 70
     1
102
RTVSPropertyOp2
 70
     1
102
RTVSPropertyOp3
 70
     1
102
RTVSPropertyOp4
 70
     1
102
RTVSPropertyOp5
 70
     1
102
RTVSPropertyOp6
 70
     1
102
RTVSPropertyOp7
 70
     1
102
RTVSPropertyOp8
 70
     1
102
RTVSPropertyOp9
 70
     1
102
RTVSPropertyOp10
 70
     1
102
RTVSPropertyOp11
 70
     1
102
RTVSPropertyOp12
 70
     1
102
RTVSPropertyOp13
 70
     1
102
RTVSPropertyOp14
 70
     1
102
RTVSPropertyOp15
 70
     1
102
RTVSPropertyOp16
 70
     1
102
RTVSPropertyOp17
 70
     1
102
RTVSPropertyOp18
 70
     1
102
RTVSPropertyOp19
 70
     1
102
RTVSPropertyOp20
 70
     1
102
RTVSPropertyOp21
 70
     1
102
RTVSPropertyOp22
 70
     1
102
RTVSPropertyOp23
 70
     1
102
RTVSPropertyOp24
 70
     1
102
RTVSPropertyOp25
 70
     1
102
RTVSPropertyOp26
 70
     1
102
RTVSPropertyOp27
 70
     1
  0
XRECORD
  5
12B
102
{ACAD_REACTORS
330
12A
102
}
330
12A
100
AcDbXrecord
280
     1
102
RTVSPropertyOp0
 70
     1
102
RTVSPropertyOp1
 70
     1
102
RTVSPropertyOp2
 70
     1
102
RTVSPropertyOp3
 70
     1
102
RTVSPropertyOp4
 70
     1
102
RTVSPropertyOp5
 70
     1
102
RTVSPropertyOp6
 70
     1
102
RTVSPropertyOp7
 70
     1
102
RTVSPropertyOp8
 70
     1
102
RTVSPropertyOp9
 70
     1
102
RTVSPropertyOp10
 70
     1
102
RTVSPropertyOp11
 70
     1
102
RTVSPropertyOp12
 70
     1
102
RTVSPropertyOp13
 70
     1
102
RTVSPropertyOp14
 70
     1
102
RTVSPropertyOp15
 70
     1
102
RTVSPropertyOp16
 70
     1
102
RTVSPropertyOp17
 70
     1
102
RTVSPropertyOp18
 70
     1
102
RTVSPropertyOp19
 70
     1
102
RTVSPropertyOp20
 70
     1
102
RTVSPropertyOp21
 70
     1
102
RTVSPropertyOp22
 70
     1
102
RTVSPropertyOp23
 70
     1
102
RTVSPropertyOp24
 70
     1
102
RTVSPropertyOp25
 70
     1
102
RTVSPropertyOp26
 70
     1
102
RTVSPropertyOp27
 70
     1
  0
XRECORD
  5
12F
102
{ACAD_REACTORS
330
12E
102
}
330
12E
100
AcDbXrecord
280
     1
102
RTVSPropertyOp0
 70
     1
102
RTVSPropertyOp1
 70
     1
102
RTVSPropertyOp2
 70
     1
102
RTVSPropertyOp3
 70
     1
102
RTVSPropertyOp4
 70
     1
102
RTVSPropertyOp5
 70
     1
102
RTVSPropertyOp6
 70
     1
102
RTVSPropertyOp7
 70
     1
102
RTVSPropertyOp8
 70
     1
102
RTVSPropertyOp9
 70
     1
102
RTVSPropertyOp10
 70
     1
102
RTVSPropertyOp11
 70
     1
102
RTVSPropertyOp12
 70
     1
102
RTVSPropertyOp13
 70
     1
102
RTVSPropertyOp14
 70
     1
102
RTVSPropertyOp15
 70
     1
102
RTVSPropertyOp16
 70
     1
102
RTVSPropertyOp17
 70
     1
102
RTVSPropertyOp18
 70
     1
102
RTVSPropertyOp19
 70
     1
102
RTVSPropertyOp20
 70
     1
102
RTVSPropertyOp21
 70
     1
102
RTVSPropertyOp22
 70
     1
102
RTVSPropertyOp23
 70
     1
102
RTVSPropertyOp24
 70
     1
102
RTVSPropertyOp25
 70
     1
102
RTVSPropertyOp26
 70
     1
102
RTVSPropertyOp27
 70
     1
  0
XRECORD
  5
137
102
{ACAD_REACTORS
330
136
102
}
330
136
100
AcDbXrecord
280
     1
102
RTVSPropertyOp0
 70
     1
102
RTVSPropertyOp1
 70
     1
102
RTVSPropertyOp2
 70
     1
102
RTVSPropertyOp3
 70
     1
102
RTVSPropertyOp4
 70
     1
102
RTVSPropertyOp5
 70
     1
102
RTVSPropertyOp6
 70
     1
102
RTVSPropertyOp7
 70
     1
102
RTVSPropertyOp8
 70
     1
102
RTVSPropertyOp9
 70
     1
102
RTVSPropertyOp10
 70
     1
102
RTVSPropertyOp11
 70
     1
102
RTVSPropertyOp12
 70
     1
102
RTVSPropertyOp13
 70
     1
102
RTVSPropertyOp14
 70
     1
102
RTVSPropertyOp15
 70
     1
102
RTVSPropertyOp16
 70
     1
102
RTVSPropertyOp17
 70
     1
102
RTVSPropertyOp18
 70
     1
102
RTVSPropertyOp19
 70
     1
102
RTVSPropertyOp20
 70
     1
102
RTVSPropertyOp21
 70
     1
102
RTVSPropertyOp22
 70
     1
102
RTVSPropertyOp23
 70
     1
102
RTVSPropertyOp24
 70
     1
102
RTVSPropertyOp25
 70
     1
102
RTVSPropertyOp26
 70
     1
102
RTVSPropertyOp27
 70
     1
  0
XRECORD
  5
13F
102
{ACAD_REACTORS
330
13E
102
}
330
13E
100
AcDbXrecord
280
     1
102
RTVSPropertyOp0
 70
     1
102
RTVSPropertyOp1
 70
     1
102
RTVSPropertyOp2
 70
     1
102
RTVSPropertyOp3
 70
     1
102
RTVSPropertyOp4
 70
     1
102
RTVSPropertyOp5
 70
     1
102
RTVSPropertyOp6
 70
     1
102
RTVSPropertyOp7
 70
     1
102
RTVSPropertyOp8
 70
     1
102
RTVSPropertyOp9
 70
     1
102
RTVSPropertyOp10
 70
     1
102
RTVSPropertyOp11
 70
     1
102
RTVSPropertyOp12
 70
     1
102
RTVSPropertyOp13
 70
     1
102
RTVSPropertyOp14
 70
     1
102
RTVSPropertyOp15
 70
     1
102
RTVSPropertyOp16
 70
     1
102
RTVSPropertyOp17
 70
     1
102
RTVSPropertyOp18
 70
     1
102
RTVSPropertyOp19
 70
     1
102
RTVSPropertyOp20
 70
     1
102
RTVSPropertyOp21
 70
     1
102
RTVSPropertyOp22
 70
     1
102
RTVSPropertyOp23
 70
     1
102
RTVSPropertyOp24
 70
     1
102
RTVSPropertyOp25
 70
     1
102
RTVSPropertyOp26
 70
     1
102
RTVSPropertyOp27
 70
     1
  0
XRECORD
  5
133
102
{ACAD_REACTORS
330
132
102
}
330
132
100
AcDbXrecord
280
     1
102
RTVSPropertyOp0
 70
     1
102
RTVSPropertyOp1
 70
     1
102
RTVSPropertyOp2
 70
     1
102
RTVSPropertyOp3
 70
     1
102
RTVSPropertyOp4
 70
     1
102
RTVSPropertyOp5
 70
     1
102
RTVSPropertyOp6
 70
     1
102
RTVSPropertyOp7
 70
     1
102
RTVSPropertyOp8
 70
     1
102
RTVSPropertyOp9
 70
     1
102
RTVSPropertyOp10
 70
     1
102
RTVSPropertyOp11
 70
     1
102
RTVSPropertyOp12
 70
     1
102
RTVSPropertyOp13
 70
     1
102
RTVSPropertyOp14
 70
     1
102
RTVSPropertyOp15
 70
     1
102
RTVSPropertyOp16
 70
     1
102
RTVSPropertyOp17
 70
     1
102
RTVSPropertyOp18
 70
     1
102
RTVSPropertyOp19
 70
     1
102
RTVSPropertyOp20
 70
     1
102
RTVSPropertyOp21
 70
     1
102
RTVSPropertyOp22
 70
     1
102
RTVSPropertyOp23
 70
     1
102
RTVSPropertyOp24
 70
     1
102
RTVSPropertyOp25
 70
     1
102
RTVSPropertyOp26
 70
     1
102
RTVSPropertyOp27
 70
     1
  0
XRECORD
  5
135
102
{ACAD_REACTORS
330
134
102
}
330
134
100
AcDbXrecord
280
     1
102
RTVSPropertyOp0
 70
     1
102
RTVSPropertyOp1
 70
     1
102
RTVSPropertyOp2
 70
     1
102
RTVSPropertyOp3
 70
     1
102
RTVSPropertyOp4
 70
     1
102
RTVSPropertyOp5
 70
     1
102
RTVSPropertyOp6
 70
     1
102
RTVSPropertyOp7
 70
     1
102
RTVSPropertyOp8
 70
     1
102
RTVSPropertyOp9
 70
     1
102
RTVSPropertyOp10
 70
     1
102
RTVSPropertyOp11
 70
     1
102
RTVSPropertyOp12
 70
     1
102
RTVSPropertyOp13
 70
     1
102
RTVSPropertyOp14
 70
     1
102
RTVSPropertyOp15
 70
     1
102
RTVSPropertyOp16
 70
     1
102
RTVSPropertyOp17
 70
     1
102
RTVSPropertyOp18
 70
     1
102
RTVSPropertyOp19
 70
     1
102
RTVSPropertyOp20
 70
     1
102
RTVSPropertyOp21
 70
     1
102
RTVSPropertyOp22
 70
     1
102
RTVSPropertyOp23
 70
     1
102
RTVSPropertyOp24
 70
     1
102
RTVSPropertyOp25
 70
     1
102
RTVSPropertyOp26
 70
     1
102
RTVSPropertyOp27
 70
     1
  0
XRECORD
  5
13D
102
{ACAD_REACTORS
330
13C
102
}
330
13C
100
AcDbXrecord
280
     1
102
RTVSPropertyOp0
 70
     1
102
RTVSPropertyOp1
 70
     1
102
RTVSPropertyOp2
 70
     1
102
RTVSPropertyOp3
 70
     1
102
RTVSPropertyOp4
 70
     1
102
RTVSPropertyOp5
 70
     1
102
RTVSPropertyOp6
 70
     1
102
RTVSPropertyOp7
 70
     1
102
RTVSPropertyOp8
 70
     1
102
RTVSPropertyOp9
 70
     1
102
RTVSPropertyOp10
 70
     1
102
RTVSPropertyOp11
 70
     1
102
RTVSPropertyOp12
 70
     1
102
RTVSPropertyOp13
 70
     1
102
RTVSPropertyOp14
 70
     1
102
RTVSPropertyOp15
 70
     1
102
RTVSPropertyOp16
 70
     1
102
RTVSPropertyOp17
 70
     1
102
RTVSPropertyOp18
 70
     1
102
RTVSPropertyOp19
 70
     1
102
RTVSPropertyOp20
 70
     1
102
RTVSPropertyOp21
 70
     1
102
RTVSPropertyOp22
 70
     1
102
RTVSPropertyOp23
 70
     1
102
RTVSPropertyOp24
 70
     1
102
RTVSPropertyOp25
 70
     1
102
RTVSPropertyOp26
 70
     1
102
RTVSPropertyOp27
 70
     1
  0
XRECORD
  5
121
102
{ACAD_REACTORS
330
120
102
}
330
120
100
AcDbXrecord
280
     1
102
RTVSPropertyOp0
 70
     1
102
RTVSPropertyOp1
 70
     1
102
RTVSPropertyOp2
 70
     1
102
RTVSPropertyOp3
 70
     1
102
RTVSPropertyOp4
 70
     1
102
RTVSPropertyOp5
 70
     1
102
RTVSPropertyOp6
 70
     1
102
RTVSPropertyOp7
 70
     1
102
RTVSPropertyOp8
 70
     1
102
RTVSPropertyOp9
 70
     1
102
RTVSPropertyOp10
 70
     1
102
RTVSPropertyOp11
 70
     1
102
RTVSPropertyOp12
 70
     1
102
RTVSPropertyOp13
 70
     1
102
RTVSPropertyOp14
 70
     1
102
RTVSPropertyOp15
 70
     1
102
RTVSPropertyOp16
 70
     1
102
RTVSPropertyOp17
 70
     1
102
RTVSPropertyOp18
 70
     1
102
RTVSPropertyOp19
 70
     1
102
RTVSPropertyOp20
 70
     1
102
RTVSPropertyOp21
 70
     1
102
RTVSPropertyOp22
 70
     1
102
RTVSPropertyOp23
 70
     1
102
RTVSPropertyOp24
 70
     1
102
RTVSPropertyOp25
 70
     1
102
RTVSPropertyOp26
 70
     1
102
RTVSPropertyOp27
 70
     1
  0
XRECORD
  5
123
102
{ACAD_REACTORS
330
122
102
}
330
122
100
AcDbXrecord
280
     1
102
RTVSPropertyOp0
 70
     1
102
RTVSPropertyOp1
 70
     1
102
RTVSPropertyOp2
 70
     1
102
RTVSPropertyOp3
 70
     1
102
RTVSPropertyOp4
 70
     1
102
RTVSPropertyOp5
 70
     1
102
RTVSPropertyOp6
 70
     1
102
RTVSPropertyOp7
 70
     1
102
RTVSPropertyOp8
 70
     1
102
RTVSPropertyOp9
 70
     1
102
RTVSPropertyOp10
 70
     1
102
RTVSPropertyOp11
 70
     1
102
RTVSPropertyOp12
 70
     1
102
RTVSPropertyOp13
 70
     1
102
RTVSPropertyOp14
 70
     1
102
RTVSPropertyOp15
 70
     1
102
RTVSPropertyOp16
 70
     1
102
RTVSPropertyOp17
 70
     1
102
RTVSPropertyOp18
 70
     1
102
RTVSPropertyOp19
 70
     1
102
RTVSPropertyOp20
 70
     1
102
RTVSPropertyOp21
 70
     1
102
RTVSPropertyOp22
 70
     1
102
RTVSPropertyOp23
 70
     1
102
RTVSPropertyOp24
 70
     1
102
RTVSPropertyOp25
 70
     1
102
RTVSPropertyOp26
 70
     1
102
RTVSPropertyOp27
 70
     1
  0
XRECORD
  5
125
102
{ACAD_REACTORS
330
124
102
}
330
124
100
AcDbXrecord
280
     1
102
RTVSPropertyOp0
 70
     1
102
RTVSPropertyOp1
 70
     1
102
RTVSPropertyOp2
 70
     1
102
RTVSPropertyOp3
 70
     1
102
RTVSPropertyOp4
 70
     1
102
RTVSPropertyOp5
 70
     1
102
RTVSPropertyOp6
 70
     1
102
RTVSPropertyOp7
 70
     1
102
RTVSPropertyOp8
 70
     1
102
RTVSPropertyOp9
 70
     1
102
RTVSPropertyOp10
 70
     1
102
RTVSPropertyOp11
 70
     1
102
RTVSPropertyOp12
 70
     1
102
RTVSPropertyOp13
 70
     1
102
RTVSPropertyOp14
 70
     1
102
RTVSPropertyOp15
 70
     1
102
RTVSPropertyOp16
 70
     1
102
RTVSPropertyOp17
 70
     1
102
RTVSPropertyOp18
 70
     1
102
RTVSPropertyOp19
 70
     1
102
RTVSPropertyOp20
 70
     1
102
RTVSPropertyOp21
 70
     1
102
RTVSPropertyOp22
 70
     1
102
RTVSPropertyOp23
 70
     1
102
RTVSPropertyOp24
 70
     1
102
RTVSPropertyOp25
 70
     1
102
RTVSPropertyOp26
 70
     1
102
RTVSPropertyOp27
 70
     1
  0
XRECORD
  5
127
102
{ACAD_REACTORS
330
126
102
}
330
126
100
AcDbXrecord
280
     1
102
RTVSPropertyOp0
 70
     1
102
RTVSPropertyOp1
 70
     1
102
RTVSPropertyOp2
 70
     1
102
RTVSPropertyOp3
 70
     1
102
RTVSPropertyOp4
 70
     1
102
RTVSPropertyOp5
 70
     1
102
RTVSPropertyOp6
 70
     1
102
RTVSPropertyOp7
 70
     1
102
RTVSPropertyOp8
 70
     1
102
RTVSPropertyOp9
 70
     1
102
RTVSPropertyOp10
 70
     1
102
RTVSPropertyOp11
 70
     1
102
RTVSPropertyOp12
 70
     1
102
RTVSPropertyOp13
 70
     1
102
RTVSPropertyOp14
 70
     1
102
RTVSPropertyOp15
 70
     1
102
RTVSPropertyOp16
 70
     1
102
RTVSPropertyOp17
 70
     1
102
RTVSPropertyOp18
 70
     1
102
RTVSPropertyOp19
 70
     1
102
RTVSPropertyOp20
 70
     1
102
RTVSPropertyOp21
 70
     1
102
RTVSPropertyOp22
 70
     1
102
RTVSPropertyOp23
 70
     1
102
RTVSPropertyOp24
 70
     1
102
RTVSPropertyOp25
 70
     1
102
RTVSPropertyOp26
 70
     1
102
RTVSPropertyOp27
 70
     1
  0
XRECORD
  5
13B
102
{ACAD_REACTORS
330
13A
102
}
330
13A
100
AcDbXrecord
280
     1
102
RTVSPropertyOp0
 70
     1
102
RTVSPropertyOp1
 70
     1
102
RTVSPropertyOp2
 70
     1
102
RTVSPropertyOp3
 70
     1
102
RTVSPropertyOp4
 70
     1
102
RTVSPropertyOp5
 70
     1
102
RTVSPropertyOp6
 70
     1
102
RTVSPropertyOp7
 70
     1
102
RTVSPropertyOp8
 70
     1
102
RTVSPropertyOp9
 70
     1
102
RTVSPropertyOp10
 70
     1
102
RTVSPropertyOp11
 70
     1
102
RTVSPropertyOp12
 70
     1
102
RTVSPropertyOp13
 70
     1
102
RTVSPropertyOp14
 70
     1
102
RTVSPropertyOp15
 70
     1
102
RTVSPropertyOp16
 70
     1
102
RTVSPropertyOp17
 70
     1
102
RTVSPropertyOp18
 70
     1
102
RTVSPropertyOp19
 70
     1
102
RTVSPropertyOp20
 70
     1
102
RTVSPropertyOp21
 70
     1
102
RTVSPropertyOp22
 70
     1
102
RTVSPropertyOp23
 70
     1
102
RTVSPropertyOp24
 70
     1
102
RTVSPropertyOp25
 70
     1
102
RTVSPropertyOp26
 70
     1
102
RTVSPropertyOp27
 70
     1
  0
XRECORD
  5
131
102
{ACAD_REACTORS
330
130
102
}
330
130
100
AcDbXrecord
280
     1
102
RTVSPropertyOp0
 70
     1
102
RTVSPropertyOp1
 70
     1
102
RTVSPropertyOp2
 70
     1
102
RTVSPropertyOp3
 70
     1
102
RTVSPropertyOp4
 70
     1
102
RTVSPropertyOp5
 70
     1
102
RTVSPropertyOp6
 70
     1
102
RTVSPropertyOp7
 70
     1
102
RTVSPropertyOp8
 70
     1
102
RTVSPropertyOp9
 70
     1
102
RTVSPropertyOp10
 70
     1
102
RTVSPropertyOp11
 70
     1
102
RTVSPropertyOp12
 70
     1
102
RTVSPropertyOp13
 70
     1
102
RTVSPropertyOp14
 70
     1
102
RTVSPropertyOp15
 70
     1
102
RTVSPropertyOp16
 70
     1
102
RTVSPropertyOp17
 70
     1
102
RTVSPropertyOp18
 70
     1
102
RTVSPropertyOp19
 70
     1
102
RTVSPropertyOp20
 70
     1
102
RTVSPropertyOp21
 70
     1
102
RTVSPropertyOp22
 70
     1
102
RTVSPropertyOp23
 70
     1
102
RTVSPropertyOp24
 70
     1
102
RTVSPropertyOp25
 70
     1
102
RTVSPropertyOp26
 70
     1
102
RTVSPropertyOp27
 70
     1
  0
XRECORD
  5
139
102
{ACAD_REACTORS
330
138
102
}
330
138
100
AcDbXrecord
280
     1
102
RTVSPropertyOp0
 70
     1
102
RTVSPropertyOp1
 70
     1
102
RTVSPropertyOp2
 70
     1
102
RTVSPropertyOp3
 70
     1
102
RTVSPropertyOp4
 70
     1
102
RTVSPropertyOp5
 70
     1
102
RTVSPropertyOp6
 70
     1
102
RTVSPropertyOp7
 70
     1
102
RTVSPropertyOp8
 70
     1
102
RTVSPropertyOp9
 70
     1
102
RTVSPropertyOp10
 70
     1
102
RTVSPropertyOp11
 70
     1
102
RTVSPropertyOp12
 70
     1
102
RTVSPropertyOp13
 70
     1
102
RTVSPropertyOp14
 70
     1
102
RTVSPropertyOp15
 70
     1
102
RTVSPropertyOp16
 70
     1
102
RTVSPropertyOp17
 70
     1
102
RTVSPropertyOp18
 70
     1
102
RTVSPropertyOp19
 70
     1
102
RTVSPropertyOp20
 70
     1
102
RTVSPropertyOp21
 70
     1
102
RTVSPropertyOp22
 70
     1
102
RTVSPropertyOp23
 70
     1
102
RTVSPropertyOp24
 70
     1
102
RTVSPropertyOp25
 70
     1
102
RTVSPropertyOp26
 70
     1
102
RTVSPropertyOp27
 70
     1
  0
ENDSEC
  0
EOF
